<svg width="100" height="100" viewBox="0 0 100 100" fill="none" xmlns="http://www.w3.org/2000/svg">
<g clip-path="url(#clip0)">
<path opacity="0.2" d="M10.6338 49.7753C11.964 41.9631 18.3968 34.4054 26.192 31.5956C34.0479 28.8653 43.2475 31.0232 52.3409 30.242C61.5138 29.4 70.6786 25.418 78.3318 26.8696C86.0646 28.2606 92.2438 34.8657 93.2313 42.4172C94.1581 49.8892 89.753 58.2889 87.0719 67.1332C84.3908 75.9775 83.2935 85.2476 78.0295 91.5349C72.7047 97.7427 63.073 100.949 54.901 99.6419C46.729 98.3348 40.1569 92.5333 34.1312 87.4469C28.0261 82.4213 22.687 78.0688 18.0916 71.8896C13.2953 65.6122 9.38296 57.5268 10.6338 49.7753Z" fill="url(#paint0_linear)"/>
<path d="M29 18.1633C42.4727 18.4898 53.6136 12.8571 57.5 10V80C54.5682 80 47.6818 77.2109 38.4091 69.1837C30.9909 62.7619 29.0455 53.8095 29 50.1361V18.1633Z" fill="#27AE60"/>
<path d="M86 18.1633C72.5273 18.4898 61.3864 12.8571 57.5 10V80C60.4318 80 67.3182 77.2109 76.5909 69.1837C84.0091 62.7619 85.9545 53.8095 86 50.1361V18.1633Z" fill="#12A550"/>
<path d="M72.283 37.4862L56.0802 54.3073C54.6789 55.7621 52.3374 55.7218 50.9869 54.2197L42.6442 44.9399C41.7555 43.9515 41.8917 42.4168 42.9404 41.6003C43.8654 40.88 45.1849 40.9742 45.9982 41.8186L53.4865 49.5926L68.5819 33.9212C69.5925 32.872 71.2724 32.872 72.283 33.9212C73.2415 34.9162 73.2415 36.4912 72.283 37.4862Z" fill="white"/>
</g>
<defs>
<linearGradient id="paint0_linear" x1="88.6481" y1="22.4059" x2="30.4563" y2="79.6339" gradientUnits="userSpaceOnUse">
<stop offset="0.614583" stop-color="#6BE9A7"/>
<stop offset="1" stop-color="#15EEEE"/>
</linearGradient>
<clipPath id="clip0">
<rect width="100" height="100" fill="white"/>
</clipPath>
</defs>
</svg>
