<svg width="101" height="100" viewBox="0 0 101 100" fill="none" xmlns="http://www.w3.org/2000/svg">
<path opacity="0.2" d="M12.5654 88.1545C17.847 96.2869 28.2533 101.161 37.4839 99.7615C46.7671 98.2962 54.8806 90.6171 64.5223 86.277C74.1701 81.9967 85.4108 81.1088 92.392 75.1188C99.4318 69.1227 102.271 58.0183 99.3808 48.9084C96.4384 39.8645 87.7208 32.9407 80.5061 24.4696C73.2914 15.9985 67.4683 6.05234 58.9327 2.06678C50.397 -1.91877 39.0315 0.0687567 31.5343 6.23401C23.9785 12.4055 20.2911 22.7547 16.8459 31.9918C13.3359 41.1754 10.1206 49.1811 8.62686 58.936C7.0683 68.6373 7.28381 80.022 12.5654 88.1545Z" fill="url(#paint0_linear)"/>
<g clip-path="url(#clip0)">
<path d="M0.5 19C0.5 16.7909 2.29086 15 4.5 15H77.5C79.7091 15 81.5 16.7909 81.5 19V74C81.5 76.2091 79.7091 78 77.5 78H4.5C2.29086 78 0.5 76.2091 0.5 74V19Z" fill="url(#paint1_linear)"/>
<path opacity="0.4" d="M0.5 19C0.5 16.7909 2.29086 15 4.5 15H77.5C79.7091 15 81.5 16.7909 81.5 19V24.9474H0.5V19Z" fill="black" fill-opacity="0.2"/>
<ellipse cx="6.20731" cy="21.7545" rx="2.70731" ry="2.70175" fill="#C61D1D"/>
<ellipse cx="14.6214" cy="21.7545" rx="2.70731" ry="2.70175" fill="#EAAF23"/>
<ellipse cx="23.0354" cy="21.7545" rx="2.70731" ry="2.70175" fill="#27AE60"/>
<path d="M31.7582 53.1321C31.719 52.079 32.5405 51.1938 33.5932 51.1552C34.6458 51.1152 35.531 51.9377 35.5702 52.9895C35.6095 54.0426 34.7881 54.9278 33.7353 54.9665C32.6827 55.0065 31.7976 54.1853 31.7582 53.1321ZM34.6814 49.1236C34.5176 49.5021 34.1025 49.6968 33.7435 49.4342C33.1208 48.9782 32.9901 47.4212 33.75 47.0333C34.2067 46.8 34.5064 47.0693 34.668 47.4865C34.6841 47.5079 34.6979 47.5345 34.7067 47.5652C34.8435 48.0544 34.8882 48.6463 34.6814 49.1236ZM32.7231 44.3418C33.7015 43.4633 35.3101 43.7819 36.0977 44.7324C36.2235 44.8843 36.1509 45.1456 35.9281 45.1416C35.9074 45.1416 35.8867 45.1416 35.8659 45.1416C35.8333 45.1603 35.7945 45.1736 35.7477 45.1736C34.922 45.187 34.0963 45.2043 33.2705 45.2136C33.0336 45.2149 32.7494 45.2163 32.5911 45.007C32.4194 44.779 32.5332 44.5111 32.7231 44.3418ZM37.9865 51.2485C38.1114 50.206 38.3666 49.1875 38.7496 48.2091C38.8424 47.9718 39.1779 48.0198 39.2235 48.2077C39.2568 48.257 39.2707 48.321 39.2506 48.3957C38.9654 49.4568 38.8776 50.5593 39.0062 51.6511C39.0363 51.907 39.0801 52.1617 39.1346 52.4136C39.1767 52.6082 39.2523 52.8149 39.2192 53.0175C39.1646 53.3508 38.8493 53.4987 38.5443 53.3721C37.7727 53.0508 37.9091 51.8977 37.9865 51.2485ZM43.0844 54.7838C43.2818 54.5466 43.6193 54.8878 43.4235 55.1224C42.1844 56.6155 40.1221 57.1594 38.3049 56.4809C38.018 56.3742 38.143 55.9103 38.4324 56.0183C40.106 56.6435 41.944 56.1569 43.0844 54.7838ZM43.2906 44.7324C44.0783 43.7819 45.6869 43.4633 46.6653 44.3418C46.8552 44.5111 46.9688 44.779 46.7973 45.007C46.6389 45.2163 46.3548 45.2149 46.1179 45.2136C45.2921 45.2043 44.4664 45.187 43.6405 45.1736C43.5939 45.1736 43.5551 45.1603 43.5224 45.1416C43.5017 45.1416 43.481 45.1416 43.4603 45.1416C43.2375 45.1456 43.1647 44.8843 43.2906 44.7324ZM44.6817 47.5652C44.6905 47.5345 44.7043 47.5079 44.7205 47.4865C44.882 47.0693 45.1817 46.8 45.6385 47.0333C46.3983 47.4212 46.2676 48.9782 45.6448 49.4342C45.2859 49.6968 44.8708 49.5021 44.707 49.1236C44.5002 48.6463 44.5447 48.0544 44.6817 47.5652ZM48.1381 52.7535C48.1774 53.8053 47.3558 54.6905 46.3032 54.7305C45.2505 54.7692 44.3653 53.948 44.3261 52.8949C44.2868 51.8431 45.1084 50.9579 46.1611 50.9179C47.2136 50.8792 48.0989 51.7004 48.1381 52.7535ZM35.5418 61.6866C35.5779 61.7132 35.6147 61.7399 35.6515 61.7665C35.667 61.7772 35.6822 61.7892 35.6978 61.7999C35.7765 61.8572 35.8565 61.9118 35.9376 61.9652C36.0186 62.0198 36.101 62.0718 36.1845 62.1238C36.2401 62.1571 36.2962 62.1918 36.3528 62.2238C36.4096 62.2571 36.4668 62.2891 36.5245 62.3211C36.6401 62.3838 36.7578 62.4451 36.8778 62.5024C36.9786 62.5517 37.08 62.597 37.182 62.6397C37.2159 62.6544 37.2497 62.669 37.2837 62.6824C37.3842 62.7237 37.485 62.761 37.5863 62.797C37.6623 62.8237 37.7386 62.8477 37.815 62.8717C38.0441 62.9423 38.275 62.9996 38.5071 63.045C38.6283 63.069 38.7497 63.0889 38.8714 63.1049C38.9329 63.1143 38.9945 63.1209 39.0561 63.1276C39.1752 63.1409 39.2947 63.1516 39.4141 63.1583C39.4565 63.1596 39.4989 63.1596 39.5413 63.1609C39.6262 63.1649 39.711 63.1689 39.7959 63.1689C39.8782 63.1689 39.9602 63.1649 40.0424 63.1623C40.2066 63.1569 40.3707 63.1476 40.5343 63.1316C40.54 63.1303 40.5456 63.1303 40.5514 63.129C40.607 63.1236 40.6627 63.1169 40.718 63.1103C40.7756 63.1023 40.8325 63.093 40.8898 63.0836C40.9546 63.0743 41.0197 63.0663 41.0842 63.0543C41.1497 63.0423 41.2147 63.0276 41.28 63.0156C41.3359 63.0036 41.392 62.9943 41.4477 62.981C41.5481 62.9583 41.648 62.933 41.7477 62.905C41.7677 62.8997 41.7881 62.8957 41.8081 62.8903C41.8393 62.8823 41.8701 62.8717 41.9011 62.8623C42.043 62.821 42.1837 62.777 42.3233 62.7277C42.5641 62.6437 42.8017 62.5491 43.035 62.4437C43.1885 62.3744 43.3394 62.2984 43.4888 62.2198C43.5611 62.1811 43.6337 62.1438 43.7049 62.1038C43.7596 62.0731 43.8141 62.0412 43.8681 62.0092C43.9615 61.9545 44.053 61.8958 44.1444 61.8385C44.4102 61.6679 44.6686 61.4853 44.9159 61.2866C45.0267 61.1986 45.1353 61.108 45.2418 61.0147C45.3933 60.8814 45.5403 60.7427 45.6825 60.6001C45.9809 60.3001 46.258 59.9855 46.5153 59.6589C46.5796 59.5763 46.6428 59.4936 46.7046 59.411C46.7406 59.3616 46.7753 59.3123 46.8105 59.2643C46.8358 59.2283 46.8616 59.1937 46.8866 59.1577C47.0204 58.9671 47.1483 58.7724 47.2702 58.5738C47.278 58.5618 47.2853 58.5485 47.2929 58.5365C47.3257 58.4818 47.3584 58.4285 47.3905 58.3738C47.4163 58.3298 47.4413 58.2858 47.4666 58.2419C47.4862 58.2072 47.5063 58.1739 47.5258 58.1392C47.6586 57.9019 47.7839 57.6606 47.9018 57.4153C47.9781 57.2567 48.0502 57.0967 48.1206 56.9354C48.1593 56.8474 48.1981 56.7595 48.2349 56.6702C48.2594 56.6102 48.283 56.5515 48.3068 56.4915C48.3167 56.4662 48.3271 56.4422 48.3368 56.4169C48.4448 56.1423 48.5451 55.8636 48.6381 55.581C48.7078 55.3704 48.7734 55.1571 48.8351 54.9438C48.8815 54.7825 48.9257 54.6225 48.9676 54.4599C48.9992 54.3386 49.0296 54.2173 49.0588 54.0946C49.1465 53.7294 49.224 53.3614 49.2921 52.9922C49.3176 52.8549 49.3412 52.7175 49.3641 52.5802C49.3656 52.5709 49.3669 52.5629 49.3684 52.5536C49.3769 52.5029 49.3856 52.4509 49.3938 52.4003C49.419 52.2403 49.4422 52.0803 49.4645 51.9217C49.4693 51.887 49.4743 51.8524 49.4791 51.8191C49.5025 51.6471 49.5243 51.4751 49.5442 51.3031C49.5715 51.0685 49.5965 50.8339 49.6194 50.598C49.6347 50.442 49.6489 50.2847 49.6619 50.1274C49.6751 49.9714 49.6872 49.8141 49.6988 49.6568C49.7035 49.5941 49.707 49.5315 49.7111 49.4688C49.7194 49.3435 49.7279 49.2169 49.7354 49.0916C49.7446 48.9383 49.7532 48.7863 49.761 48.633C49.7687 48.4797 49.7756 48.3264 49.7814 48.1744C49.792 47.8891 49.7996 47.6052 49.8047 47.3212C49.808 47.1239 49.8098 46.9266 49.8104 46.7293C49.8106 46.6613 49.81 46.5947 49.81 46.528C49.8098 46.3974 49.8094 46.2681 49.8079 46.1374C49.8071 46.0561 49.8056 45.9761 49.8044 45.8962C49.8024 45.7788 49.8003 45.6629 49.7975 45.5469C49.7954 45.4602 49.793 45.3736 49.7903 45.2869C49.787 45.1763 49.7831 45.0656 49.779 44.955C49.7756 44.8657 49.772 44.7764 49.7682 44.687C49.7634 44.5791 49.758 44.4711 49.7526 44.3644C49.7479 44.2725 49.7434 44.1818 49.7382 44.0912C49.7319 43.9818 49.7246 43.8725 49.7175 43.7632C49.7118 43.6752 49.7066 43.5873 49.7003 43.4993C49.6883 43.3286 49.6751 43.1593 49.661 42.9887C49.6596 42.9727 49.6579 42.9554 49.6566 42.9394C46.8404 40.8611 44.5535 38.1683 42.9584 35.0688C42.9413 35.0635 42.9243 35.0582 42.9072 35.0528C39.9511 39.2387 34.9148 41.385 30.1493 43.126C30.1457 43.19 30.1409 43.2527 30.1376 43.3166C30.1305 43.4553 30.1235 43.5939 30.1177 43.7326C30.1143 43.8179 30.1117 43.9032 30.1088 43.9898C30.1048 44.1072 30.1008 44.2245 30.0978 44.3418C30.0956 44.4311 30.0942 44.5204 30.0924 44.6097C30.0903 44.7244 30.0886 44.839 30.0875 44.9537C30.0866 45.043 30.0863 45.1336 30.086 45.2229C30.0858 45.3389 30.0862 45.4549 30.0868 45.5709C30.0875 45.6575 30.0882 45.7455 30.0894 45.8335C30.0911 45.9535 30.0936 46.0748 30.0964 46.1948C30.0983 46.2774 30.1 46.3601 30.1025 46.4427C30.1065 46.576 30.1117 46.7093 30.1172 46.844C30.12 46.9133 30.1223 46.9826 30.1255 47.0519C30.1347 47.2506 30.1453 47.4479 30.1577 47.6465C30.158 47.6505 30.1581 47.6558 30.1584 47.6598C30.1709 47.8611 30.1857 48.0611 30.2015 48.261C30.2135 48.413 30.2259 48.565 30.2399 48.7156C30.2627 48.9636 30.2881 49.2115 30.3162 49.4595C30.3442 49.7074 30.3749 49.9541 30.4081 50.2007C30.4265 50.338 30.4468 50.474 30.4667 50.6099C30.5066 50.8832 30.5485 51.1552 30.5949 51.4271L30.8026 52.5269L30.8032 52.5309L30.8078 52.5536C30.8576 52.7962 30.9109 53.0362 30.9661 53.2761C31.0638 53.7014 31.1702 54.1253 31.2849 54.5465C31.3153 54.6572 31.345 54.7692 31.3766 54.8798C31.5604 55.5264 31.7773 56.1729 32.0333 56.8048C32.2891 57.4367 32.5839 58.0552 32.9233 58.6418C33.0083 58.7898 33.096 58.9337 33.1864 59.0777C33.4241 59.4523 33.6816 59.8136 33.9606 60.1548C34.4255 60.7241 34.95 61.2413 35.5418 61.6866Z" fill="#FFBB9C"/>
<path d="M29.9623 50.4169C29.9399 50.3849 29.9156 50.3543 29.8927 50.3223C29.7779 50.1623 29.6581 50.0077 29.5298 49.8597C29.4016 49.7104 29.2649 49.5691 29.1231 49.4331C29.0947 49.4051 29.0676 49.3771 29.0387 49.3505C29.0301 49.3545 29.021 49.3598 29.0114 49.3638C29.0049 49.3665 28.9978 49.3691 28.9907 49.3718C28.9873 49.3731 28.9842 49.3745 28.9806 49.3745C28.9535 49.3825 28.9273 49.3918 28.9017 49.4025C28.8761 49.4131 28.8513 49.4251 28.8273 49.4385C28.7913 49.4585 28.758 49.4811 28.7258 49.5064C28.7152 49.5144 28.704 49.5224 28.6938 49.5318C28.6803 49.5438 28.6672 49.5558 28.6544 49.5678C28.6416 49.5811 28.6293 49.5944 28.6175 49.6077C28.6096 49.6171 28.6027 49.6264 28.5952 49.6357C28.5901 49.6424 28.5852 49.6477 28.5803 49.6544C28.5779 49.6571 28.5752 49.6611 28.5728 49.6637C28.5517 49.6931 28.5327 49.7237 28.5158 49.7544C28.4988 49.7864 28.4842 49.8184 28.4716 49.853C28.4654 49.869 28.4598 49.8864 28.4547 49.9037C28.4243 50.0077 28.4155 50.117 28.4326 50.2276C28.4354 50.2463 28.439 50.2636 28.4434 50.2823C28.4499 50.3103 28.4506 50.337 28.4486 50.3623C28.4479 50.3703 28.448 50.3783 28.4466 50.3863C28.4435 50.4023 28.439 50.4169 28.433 50.4316C28.4299 50.4383 28.4255 50.4449 28.4218 50.4516C28.418 50.4583 28.4151 50.4649 28.4107 50.4716C28.4022 50.4836 28.3923 50.4956 28.3815 50.5063C28.3707 50.5169 28.3591 50.5262 28.3466 50.5342C28.3342 50.5422 28.321 50.5502 28.3073 50.5569C28.2982 50.5609 28.2886 50.5636 28.279 50.5662C28.2743 50.5676 28.2698 50.5702 28.2649 50.5716C28.2506 50.5756 28.2358 50.5782 28.221 50.5796C28.2062 50.5822 28.1914 50.5822 28.1767 50.5809C28.1621 50.5796 28.1477 50.5782 28.1336 50.5742C28.1269 50.5729 28.1208 50.5689 28.1144 50.5676C28.0952 50.5609 28.0766 50.5516 28.0601 50.5396C28.049 50.5302 28.0388 50.5209 28.0293 50.5102C28.02 50.4996 28.0114 50.4863 28.004 50.4729C27.9942 50.4543 27.9864 50.4343 27.9808 50.4103C27.9725 50.3743 27.9657 50.3396 27.9605 50.3036C27.9555 50.2676 27.9519 50.233 27.9499 50.197C27.9477 50.161 27.9472 50.1263 27.9481 50.0917C27.9491 50.0557 27.9515 50.021 27.9553 49.9863C27.9581 49.961 27.9643 49.9357 27.9687 49.909C27.9732 49.8837 27.976 49.8584 27.9821 49.833C28.0061 49.7317 28.0425 49.6344 28.0898 49.5424C28.1134 49.4971 28.1398 49.4531 28.1689 49.4105C28.1882 49.3811 28.2087 49.3545 28.2303 49.3278C28.2411 49.3145 28.253 49.3011 28.2643 49.2891C28.2758 49.2758 28.2866 49.2625 28.2985 49.2492C28.3342 49.2118 28.3722 49.1772 28.4124 49.1438C28.4527 49.1105 28.4952 49.0812 28.5397 49.0532C28.5696 49.0345 28.6003 49.0172 28.6317 49.0012C28.6224 48.9932 28.6129 48.9865 28.6035 48.9785C28.594 48.9719 28.5847 48.9652 28.5752 48.9572C28.5372 48.9292 28.4986 48.9012 28.4592 48.8746C28.4298 48.8546 28.3999 48.8346 28.3696 48.8159C28.3395 48.7972 28.309 48.7786 28.2781 48.7612C28.2643 48.7532 28.2501 48.7466 28.2362 48.7386C28.2085 48.7239 28.1809 48.7079 28.1526 48.6946C28.1421 48.6893 28.1313 48.6853 28.1205 48.6799C28.1098 48.6746 28.0993 48.6693 28.0886 48.6653C28.0133 48.6319 27.9363 48.6039 27.8575 48.5826C27.8313 48.5759 27.8046 48.5706 27.7779 48.5653C27.7247 48.5546 27.671 48.5453 27.6162 48.5413C27.5899 48.5386 27.5634 48.5373 27.5367 48.5386C27.4967 48.5386 27.4566 48.5413 27.4168 48.5466C27.3968 48.5493 27.3768 48.5533 27.3569 48.5573C27.3372 48.5613 27.3174 48.5666 27.298 48.572C27.2719 48.5786 27.2461 48.5866 27.2207 48.5959C27.1955 48.6053 27.1705 48.6146 27.1461 48.6266C27.1217 48.6373 27.098 48.6493 27.0748 48.6626C27.0518 48.6759 27.0292 48.6906 27.0078 48.7053C26.9213 48.7652 26.8479 48.8412 26.7961 48.9319C26.7767 48.9652 26.7615 49.0012 26.7486 49.0385C26.7442 49.0505 26.7391 49.0625 26.7357 49.0759C26.7321 49.0892 26.7302 49.1025 26.7276 49.1158C26.7196 49.1558 26.714 49.1958 26.7137 49.2398C26.7137 49.2572 26.7121 49.2745 26.7089 49.2905C26.7057 49.3065 26.7012 49.3211 26.6953 49.3358C26.6865 49.3558 26.6749 49.3745 26.6612 49.3905C26.6473 49.4065 26.6314 49.4198 26.614 49.4304C26.6081 49.4344 26.6013 49.4358 26.5952 49.4398C26.5645 49.4558 26.5311 49.4664 26.496 49.4691C26.4801 49.4704 26.4641 49.4704 26.4484 49.4691C26.4324 49.4678 26.4168 49.4651 26.4015 49.4611C26.3786 49.4544 26.3572 49.4438 26.3372 49.4318C26.3306 49.4278 26.3235 49.4251 26.3172 49.4198C26.3111 49.4145 26.306 49.4091 26.3003 49.4038C26.2946 49.3985 26.2884 49.3931 26.2832 49.3878C26.268 49.3691 26.2558 49.3478 26.2472 49.3225C26.2387 49.2985 26.234 49.2705 26.2342 49.2398C26.2342 49.2345 26.2346 49.2292 26.2348 49.2238C26.235 49.2212 26.2351 49.2185 26.2351 49.2158C26.2359 49.1852 26.2379 49.1545 26.2412 49.1238C26.2478 49.0625 26.2594 49.0039 26.2755 48.9465C26.2996 48.8612 26.3342 48.7799 26.3775 48.7026C26.4064 48.6519 26.4392 48.6039 26.4756 48.5586C26.5101 48.5146 26.548 48.4733 26.5885 48.4346C26.7101 48.3173 26.8571 48.224 27.0204 48.1587C27.0312 48.1547 27.042 48.1507 27.0528 48.1467C27.0638 48.1427 27.0746 48.1387 27.0854 48.1347C27.1063 48.128 27.1272 48.1227 27.1481 48.116C27.1587 48.1134 27.1691 48.1094 27.1795 48.1067C27.2111 48.0987 27.2427 48.092 27.2742 48.0854C27.306 48.08 27.3377 48.0747 27.3696 48.072C27.4013 48.068 27.4332 48.0654 27.465 48.064C27.4969 48.0627 27.5287 48.0627 27.5606 48.0627C27.6243 48.064 27.688 48.0694 27.7514 48.0774C27.8225 48.088 27.8935 48.1027 27.9636 48.1214C27.9985 48.1294 28.0334 48.14 28.0681 48.1507C28.1373 48.1734 28.2057 48.1987 28.2727 48.228C28.3063 48.2427 28.3395 48.2573 28.3723 48.2733C28.4379 48.3053 28.5021 48.3413 28.5645 48.3773C28.7426 48.4826 28.9141 48.6026 29.0786 48.7319C29.1198 48.7652 29.1604 48.7972 29.2007 48.8319C29.2812 48.8999 29.3599 48.9692 29.4368 49.0425C29.4753 49.0785 29.5134 49.1158 29.5509 49.1532C29.5634 49.1652 29.5757 49.1785 29.5879 49.1905C29.6002 49.2038 29.6125 49.2158 29.6249 49.2292C29.6742 49.2798 29.7227 49.3318 29.7703 49.3838C29.7783 49.3931 29.7862 49.4011 29.7942 49.4105C29.81 49.4278 29.8262 49.4451 29.8418 49.4624C29.8344 49.3985 29.8278 49.3331 29.8208 49.2678C29.8138 49.2025 29.8064 49.1385 29.7998 49.0732C29.7866 48.9425 29.7739 48.8119 29.7619 48.6826C29.7581 48.6386 29.7546 48.5946 29.7507 48.552C29.7431 48.4653 29.7354 48.3773 29.7285 48.2907C29.7231 48.2253 29.7185 48.16 29.7135 48.0947C29.7087 48.0294 29.7034 47.9654 29.6987 47.9001C29.6981 47.8894 29.6973 47.8787 29.6965 47.8694C29.6957 47.8587 29.695 47.8494 29.6942 47.8388C29.6317 47.7534 29.5668 47.6694 29.4993 47.5881C29.3645 47.4268 29.22 47.2735 29.0646 47.1349C28.9674 47.0496 28.8661 46.9682 28.7601 46.8936C28.4424 46.6696 28.084 46.5057 27.6778 46.4297C27.565 46.4084 27.4542 46.3964 27.3456 46.3924C27.2371 46.3897 27.1307 46.395 27.027 46.4083C26.9234 46.4217 26.8225 46.443 26.7246 46.4723C26.6269 46.5017 26.5323 46.5377 26.4412 46.5816C26.2564 46.6696 26.0866 46.7856 25.9354 46.9269C25.6398 47.2029 25.4154 47.5695 25.2916 47.9934C25.1724 48.4013 25.1315 48.8412 25.1546 49.2838C25.1856 49.873 25.3305 50.4676 25.5559 50.9982C25.6122 51.1301 25.6736 51.2594 25.7395 51.3834C25.7656 51.4314 25.7929 51.4807 25.8212 51.5287C25.8496 51.5767 25.879 51.6247 25.9094 51.6714C25.949 51.7327 25.9904 51.7927 26.0333 51.8513C26.0763 51.91 26.121 51.9673 26.1673 52.0246C26.3143 52.2033 26.4775 52.3699 26.6549 52.5179C26.7613 52.6059 26.8727 52.6885 26.9888 52.7632C27.0275 52.7885 27.0667 52.8125 27.1064 52.8352C27.2255 52.9045 27.3489 52.9671 27.4763 53.0191C27.5189 53.0364 27.5618 53.0538 27.6051 53.0684C27.7351 53.1151 27.8689 53.1524 28.006 53.1791C28.0393 53.1858 28.0728 53.1911 28.1064 53.1964C28.1164 53.1991 28.1262 53.2004 28.1362 53.2017C28.1798 53.2084 28.2239 53.2137 28.2683 53.2191C28.3167 53.2231 28.365 53.2257 28.4131 53.2284C28.4372 53.2284 28.4612 53.2284 28.4852 53.2284C28.5094 53.2284 28.5335 53.2297 28.5575 53.2284C28.6055 53.2271 28.6532 53.2244 28.7008 53.2204C28.7722 53.2151 28.843 53.2057 28.9131 53.1937C28.9833 53.1817 29.0527 53.1658 29.1211 53.1484C29.1667 53.1364 29.2119 53.1218 29.2565 53.1071C29.3013 53.0924 29.3456 53.0764 29.3893 53.0604C29.5641 52.9911 29.7299 52.9018 29.8827 52.7938C29.8943 52.7845 29.9051 52.7765 29.9164 52.7672C29.9428 52.7485 29.9693 52.7298 29.9948 52.7085C30.0496 52.6645 30.1024 52.6179 30.1529 52.5685C30.2034 52.5205 30.252 52.4686 30.2978 52.4152C30.2652 52.2486 30.2338 52.0833 30.2036 51.9167C30.1128 51.4181 30.0324 50.9182 29.9623 50.4169Z" fill="#FFBB9C"/>
<path d="M46.3852 74.2841L46.373 70.257L46.3608 66.242L46.3603 66.0834L46.3599 65.9221L46.3458 61.3123C46.2671 61.3896 46.1871 61.4669 46.1061 61.5429C46.025 61.6189 45.9429 61.6936 45.8601 61.7669C45.7763 61.8429 45.6914 61.9162 45.6055 61.9882C45.5627 62.0255 45.5199 62.0615 45.4766 62.0975C45.4115 62.1508 45.3458 62.2041 45.2796 62.2561C45.2132 62.3081 45.1463 62.3601 45.0785 62.4108C44.9158 62.5334 44.7502 62.652 44.5822 62.7654C44.4143 62.8787 44.2438 62.9866 44.0711 63.0906C43.7256 63.2986 43.3713 63.4879 43.0093 63.6585C42.8887 63.7145 42.7672 63.7692 42.645 63.8225C42.446 63.9078 42.2444 63.9865 42.0416 64.0611C41.8707 64.1238 41.699 64.1838 41.5257 64.2384C41.3568 64.2917 41.1866 64.3411 41.0156 64.3864C40.6908 64.473 40.3628 64.5464 40.0324 64.6063C39.8542 64.6383 39.6754 64.6677 39.496 64.6917C39.3979 64.705 39.2995 64.717 39.201 64.7277C38.9677 64.7543 38.7335 64.773 38.4988 64.785C38.4391 64.789 38.3793 64.7903 38.3195 64.7916C38.1445 64.7983 37.9693 64.8036 37.7942 64.8023C37.4636 64.801 37.1327 64.785 36.8028 64.757C36.4727 64.729 36.1434 64.6877 35.8157 64.6317C35.69 64.6103 35.5646 64.5863 35.4393 64.561C35.4196 64.557 35.3997 64.5544 35.38 64.5504C35.1989 64.513 35.0184 64.4717 34.8387 64.425C34.659 64.3797 34.4803 64.3304 34.3023 64.2757C34.2832 64.2704 34.2643 64.2637 34.2452 64.2584C34.067 64.2037 33.8896 64.1451 33.7135 64.0824C33.7077 64.6903 33.702 65.2982 33.6963 65.9061C33.6957 65.9594 33.6952 66.0128 33.6947 66.0661C33.6941 66.1194 33.6937 66.1727 33.6932 66.2247C33.6691 68.7597 33.6452 71.294 33.6211 73.8284C33.6395 73.8473 33.6584 73.8649 33.6771 73.8833C33.7545 73.9593 33.8348 74.0306 33.9177 74.0978C33.9761 74.145 34.0353 74.1909 34.0961 74.2343C34.1311 74.2592 34.1679 74.2812 34.2036 74.3048C34.2487 74.3347 34.2931 74.3658 34.3394 74.3937C34.4016 74.4313 34.4648 74.4669 34.5289 74.501C34.5929 74.535 34.658 74.5674 34.7238 74.5982C34.7895 74.6291 34.8562 74.6585 34.9235 74.6862C34.9655 74.7035 35.0087 74.7186 35.0514 74.7347C35.1792 74.7834 35.3086 74.8284 35.4403 74.868C35.4474 74.8702 35.4543 74.8722 35.4613 74.8743C35.4894 74.883 35.5174 74.8917 35.5457 74.8997C35.5929 74.9129 35.6402 74.9257 35.6876 74.938C35.7102 74.9439 35.733 74.9485 35.7556 74.9541C35.8283 74.9723 35.9009 74.9901 35.974 75.0061C36.022 75.0165 36.0704 75.0253 36.1185 75.0349C36.1666 75.0445 36.2146 75.0549 36.2629 75.0639C36.586 75.1229 36.9122 75.1698 37.2401 75.2072C37.3495 75.2196 37.4589 75.231 37.5686 75.2414C37.7195 75.2557 37.8708 75.2677 38.0221 75.2788C38.2006 75.2917 38.3793 75.3029 38.558 75.3119C38.668 75.3174 38.7781 75.3225 38.888 75.3267C39.1812 75.3383 39.474 75.3461 39.7654 75.3517C39.9208 75.3547 40.0764 75.3566 40.232 75.3573C40.3874 75.3579 40.543 75.3574 40.6984 75.3558C40.8928 75.3537 41.0872 75.3498 41.2815 75.3439C41.5729 75.3353 41.8643 75.3226 42.1554 75.3057C42.4465 75.2887 42.7374 75.2677 43.0279 75.2426C43.1053 75.236 43.1826 75.2281 43.2601 75.2208C43.3374 75.2134 43.4149 75.2068 43.4923 75.1989C43.5654 75.1914 43.6385 75.184 43.7117 75.1765C43.7421 75.1733 43.7726 75.1701 43.803 75.1669C43.8368 75.1634 43.8704 75.16 43.9041 75.1564C44.0206 75.144 44.1371 75.1306 44.2535 75.1166C44.2654 75.1152 44.2772 75.1141 44.2891 75.1125C44.4173 75.0969 44.5454 75.0798 44.673 75.0608C44.8007 75.0417 44.9279 75.0207 45.0545 74.9969C45.1179 74.9851 45.1811 74.9727 45.244 74.9593C45.2849 74.9507 45.3258 74.9416 45.3665 74.9317C45.3799 74.9285 45.3933 74.9248 45.4067 74.9215C45.4337 74.9147 45.4607 74.9081 45.4874 74.9008C45.4935 74.8991 45.4994 74.8969 45.5055 74.8952L46.3875 74.4033C46.3751 74.3648 46.3744 74.324 46.3852 74.2841Z" fill="#FFBB9C"/>
<path d="M50.1064 52.9654C50.1311 52.9788 50.1567 52.9894 50.1818 53.0001C50.2466 53.0307 50.3124 53.0587 50.3796 53.0827C50.3945 53.0881 50.4091 53.0947 50.4241 53.1001C50.4514 53.1094 50.4794 53.1161 50.5072 53.1241C50.5901 53.1494 50.6741 53.1721 50.7598 53.188C50.8739 53.2094 50.9901 53.2227 51.1075 53.2267C51.1255 53.228 51.1436 53.228 51.1616 53.228C51.1797 53.228 51.1978 53.2294 51.216 53.2294C51.2522 53.2294 51.2885 53.228 51.3249 53.2267C51.343 53.2254 51.3613 53.224 51.3795 53.2227C51.3977 53.2214 51.4159 53.22 51.4342 53.2187C51.4628 53.216 51.4912 53.2107 51.5195 53.208C51.5882 53.1987 51.6563 53.188 51.7233 53.1747C51.7944 53.1601 51.8646 53.1427 51.9338 53.1227C52.0031 53.1027 52.0714 53.0801 52.1386 53.0547C52.2388 53.0161 52.3366 52.9734 52.4319 52.9254C52.527 52.8761 52.6197 52.8228 52.7097 52.7655C52.7995 52.7068 52.8867 52.6442 52.971 52.5775C53.0552 52.5108 53.1365 52.4402 53.2146 52.3669C53.263 52.3202 53.3086 52.2722 53.3548 52.2242C53.3774 52.2002 53.4017 52.1776 53.4235 52.1536C53.4385 52.1376 53.4525 52.1202 53.4671 52.1029C53.4734 52.0949 53.4793 52.0882 53.4854 52.0802C53.5329 52.0256 53.5784 51.9683 53.6227 51.911C53.6426 51.8843 53.6628 51.859 53.6819 51.8336C53.7339 51.7603 53.7835 51.687 53.8304 51.6123C53.8772 51.5364 53.9216 51.4604 53.963 51.383C54.0289 51.2591 54.0902 51.1298 54.1466 50.9978C54.1747 50.9311 54.2017 50.8645 54.2273 50.7965C54.3856 50.3739 54.4933 49.9193 54.5348 49.4621C54.5487 49.3101 54.5552 49.1581 54.5537 49.0075C54.5519 48.8049 54.5359 48.6049 54.5044 48.4103C54.4816 48.2676 54.4505 48.129 54.4108 47.993C54.3911 47.925 54.3691 47.8597 54.3446 47.7957C54.1731 47.3478 53.8844 46.9745 53.517 46.7266C53.4174 46.6599 53.312 46.6013 53.2016 46.5533C53.1577 46.5346 53.1132 46.516 53.0679 46.5013C52.8867 46.4373 52.6938 46.4 52.492 46.3933C52.4543 46.392 52.4161 46.3907 52.3776 46.392C52.2624 46.3947 52.1446 46.4066 52.0246 46.4293C51.8476 46.4626 51.6796 46.512 51.5202 46.5773C51.3607 46.6413 51.2097 46.7199 51.0665 46.8106C50.9235 46.9012 50.7883 47.0039 50.6603 47.1158C50.5325 47.2278 50.4119 47.3491 50.298 47.4771C50.2931 47.7344 50.2856 47.9904 50.2756 48.2463C50.272 48.337 50.2676 48.4289 50.2635 48.5209C50.2613 48.5662 50.2596 48.6129 50.2575 48.6582C50.2552 48.7036 50.2523 48.7502 50.2499 48.7955C50.245 48.8875 50.2403 48.9782 50.2348 49.0701C50.3043 49.0035 50.3752 48.9395 50.4477 48.8768C50.5201 48.8142 50.5941 48.7542 50.6693 48.6956C50.707 48.6676 50.7461 48.6409 50.7843 48.6129C50.8227 48.5849 50.8604 48.5556 50.8995 48.5289C50.9775 48.4756 51.0571 48.4249 51.1378 48.3769C51.1989 48.3409 51.2622 48.3076 51.3263 48.277C51.4333 48.2236 51.5438 48.1783 51.6569 48.1437C51.7295 48.121 51.8028 48.1023 51.8769 48.089C51.9138 48.0823 51.951 48.077 51.9884 48.073C52.0545 48.065 52.121 48.061 52.1875 48.061C52.2083 48.0623 52.2291 48.0637 52.2498 48.065C52.2862 48.0677 52.3224 48.0703 52.3587 48.0743C52.4313 48.0837 52.5036 48.0997 52.5752 48.121C52.6109 48.1317 52.6466 48.1437 52.6821 48.1583C52.7659 48.1917 52.8454 48.233 52.9195 48.281C52.9344 48.2903 52.9494 48.2996 52.9638 48.3103C52.9799 48.321 52.9938 48.3356 53.0092 48.3476C53.0402 48.3716 53.0716 48.3956 53.1001 48.4223C53.1097 48.4316 53.1192 48.4396 53.1288 48.4489C53.1335 48.4529 53.1385 48.4569 53.1431 48.4623C53.1612 48.4809 53.1788 48.4996 53.1956 48.5196C53.2801 48.6169 53.3481 48.7275 53.395 48.8489C53.4185 48.9088 53.4367 48.9715 53.4491 49.0368C53.4615 49.1021 53.4681 49.1701 53.4683 49.2395C53.4685 49.2608 53.4662 49.2794 53.4621 49.2981C53.4593 49.3101 53.4545 49.3208 53.4501 49.3314C53.4479 49.3368 53.4467 49.3434 53.4441 49.3488C53.4365 49.3634 53.427 49.3781 53.4163 49.3901C53.4057 49.4021 53.3937 49.4141 53.3807 49.4234C53.3719 49.4287 53.3624 49.4341 53.3529 49.4394C53.3481 49.4421 53.3438 49.4447 53.3389 49.4474C53.3365 49.4487 53.3338 49.4487 53.3313 49.4501C53.3261 49.4514 53.321 49.4527 53.3158 49.4554C53.312 49.4567 53.3081 49.4581 53.3044 49.4594C53.3005 49.4607 53.2968 49.4621 53.2928 49.4634C53.2849 49.4647 53.2766 49.4647 53.2686 49.4661C53.2604 49.4674 53.2524 49.4687 53.2442 49.4701C53.2278 49.4701 53.2114 49.4701 53.1952 49.4674C53.1817 49.4661 53.1684 49.4634 53.1555 49.4607C53.1295 49.4527 53.1048 49.4421 53.0827 49.4274C53.0716 49.4194 53.0612 49.4101 53.0517 49.4007C53.0422 49.3914 53.0335 49.3808 53.0258 49.3701C53.0182 49.3581 53.0115 49.3461 53.006 49.3314C53.0006 49.3181 52.9962 49.3034 52.9932 49.2888C52.9903 49.2728 52.9887 49.2568 52.9887 49.2395C52.9883 49.0768 52.9286 48.9382 52.833 48.8289C52.8013 48.7915 52.7654 48.7582 52.7265 48.7275C52.6875 48.6982 52.6456 48.6716 52.6013 48.6476C52.557 48.6249 52.5105 48.6049 52.4627 48.5889C52.4435 48.5822 52.424 48.5756 52.4045 48.5716C52.3899 48.5676 52.3748 48.5649 52.3601 48.5609C52.3355 48.5556 52.3106 48.5516 52.2856 48.5476C52.2656 48.5449 52.2458 48.5422 52.2256 48.5409C52.2056 48.5382 52.1856 48.5383 52.1656 48.5383C52.139 48.5369 52.1125 48.5382 52.0862 48.5409C52.0627 48.5422 52.0394 48.5449 52.0162 48.5476C52.0046 48.5489 51.9933 48.5516 51.9817 48.5542C51.9586 48.5569 51.9356 48.5609 51.9129 48.5662C51.8786 48.5729 51.8448 48.5822 51.8112 48.5916C51.7889 48.5982 51.7671 48.6076 51.7451 48.6142C51.7229 48.6222 51.7005 48.6289 51.6788 48.6382C51.6679 48.6422 51.6573 48.6476 51.6465 48.6516C51.6358 48.6569 51.625 48.6609 51.6143 48.6662C51.5712 48.6849 51.5288 48.7049 51.4871 48.7275C51.4731 48.7355 51.4593 48.7422 51.4453 48.7502C51.4383 48.7529 51.4313 48.7569 51.4245 48.7609C51.3831 48.7849 51.3426 48.8089 51.3026 48.8355C51.2826 48.8475 51.2629 48.8608 51.2432 48.8742C51.217 48.8928 51.1914 48.9115 51.1658 48.9302C51.153 48.9395 51.1398 48.9475 51.1272 48.9568C51.1209 48.9622 51.1147 48.9675 51.1083 48.9715C51.0957 48.9808 51.0831 48.9902 51.0707 49.0008C51.2008 49.0661 51.3159 49.1555 51.4129 49.2581C51.4451 49.2941 51.4755 49.3301 51.5036 49.3674C51.553 49.4341 51.5956 49.5047 51.6312 49.5794C51.6668 49.654 51.6952 49.7327 51.7157 49.814C51.7187 49.8247 51.7209 49.8367 51.7236 49.8487C51.7261 49.8593 51.7291 49.8713 51.7313 49.8833C51.738 49.9167 51.7433 49.9513 51.7471 49.986C51.7509 50.0206 51.7533 50.0553 51.7543 50.0913C51.7559 50.15 51.7519 50.2099 51.7447 50.2699C51.7424 50.2899 51.7411 50.3099 51.7377 50.3299C51.7332 50.3566 51.7279 50.3832 51.7216 50.4099C51.7187 50.4219 51.7141 50.4326 51.7099 50.4446C51.7015 50.4659 51.6913 50.4859 51.6787 50.5032C51.6641 50.5219 51.6472 50.5365 51.6287 50.5485C51.6102 50.5605 51.59 50.5685 51.569 50.5739C51.5548 50.5779 51.5403 50.5792 51.5256 50.5805C51.511 50.5819 51.4962 50.5819 51.4814 50.5792C51.4593 50.5779 51.4371 50.5725 51.4161 50.5645C51.3949 50.5565 51.3746 50.5472 51.3558 50.5339C51.3371 50.5219 51.3201 50.5059 51.3054 50.4886C51.2945 50.4766 51.2849 50.4619 51.2769 50.4472C51.269 50.4312 51.2628 50.4152 51.2584 50.3979C51.2556 50.3872 51.2536 50.3739 51.2525 50.3619C51.2506 50.3366 51.2525 50.3099 51.2592 50.2819C51.2648 50.2579 51.2693 50.2339 51.2725 50.2086C51.2756 50.1846 51.2774 50.1593 51.2782 50.1353C51.2796 50.0873 51.276 50.038 51.268 49.9913C51.266 49.9793 51.2629 49.9673 51.2604 49.9553C51.2552 49.9327 51.2477 49.91 51.2406 49.8873C51.2372 49.8753 51.235 49.8633 51.2308 49.8527C51.2294 49.8487 51.2277 49.8447 51.2261 49.8407C51.223 49.834 51.2198 49.8273 51.2168 49.8193C51.2121 49.8087 51.208 49.7967 51.2028 49.786C51.1854 49.75 51.1644 49.7154 51.1416 49.682C51.0431 49.5381 50.8974 49.4247 50.7219 49.3741C50.7146 49.3728 50.7081 49.3701 50.7014 49.3674C50.6979 49.3661 50.6942 49.3648 50.6911 49.3634C50.6862 49.3608 50.6819 49.3594 50.6774 49.3568C50.6729 49.3541 50.6681 49.3514 50.6637 49.3501C50.6529 49.3594 50.6425 49.3701 50.6321 49.3794C50.6215 49.3901 50.6109 49.3994 50.6004 49.4101C50.5793 49.4301 50.558 49.4501 50.5372 49.4701C50.454 49.5527 50.3735 49.6367 50.2951 49.722C50.2753 49.7434 50.2564 49.766 50.2371 49.7873C50.2178 49.8087 50.1982 49.83 50.1791 49.8527C50.1691 49.9753 50.1583 50.098 50.147 50.2219C50.1394 50.3033 50.131 50.3859 50.123 50.4672C50.1188 50.5085 50.1151 50.5485 50.111 50.5899C50.0983 50.7125 50.0851 50.8352 50.0711 50.9578C50.0537 51.1111 50.0353 51.2644 50.0158 51.4177C49.9866 51.647 49.9551 51.875 49.9213 52.1043C49.8874 52.3322 49.8512 52.5602 49.8125 52.7868C49.8592 52.8201 49.9072 52.8521 49.9562 52.8814C50.0053 52.9121 50.0554 52.9401 50.1064 52.9654Z" fill="#FFBB9C"/>
<path d="M28.4453 50.2824C28.4519 50.3104 28.4525 50.3371 28.4505 50.3624C28.4525 50.3371 28.4519 50.3104 28.4453 50.2824Z" fill="#FCFBF7"/>
<path d="M40.5349 63.1317C40.3713 63.1477 40.2072 63.157 40.043 63.1624C40.2072 63.157 40.3713 63.1477 40.5349 63.1317Z" fill="#FCFBF7"/>
<path d="M27.0273 46.4083C27.1311 46.395 27.2374 46.3897 27.346 46.3923C27.2373 46.3897 27.1311 46.395 27.0273 46.4083Z" fill="#FCFBF7"/>
<path d="M43.032 62.4441C42.7988 62.5494 42.5611 62.644 42.3203 62.728C42.5611 62.644 42.7989 62.5494 43.032 62.4441Z" fill="#FCFBF7"/>
<path d="M26.7148 49.2396C26.7151 49.1956 26.7207 49.1557 26.7287 49.1157C26.7206 49.1557 26.715 49.1956 26.7148 49.2396Z" fill="#FCFBF7"/>
<path d="M51.7173 49.8142C51.6968 49.7329 51.6684 49.6543 51.6328 49.5796C51.6684 49.6543 51.6968 49.7329 51.7173 49.8142Z" fill="#FCFBF7"/>
<path d="M50.668 49.3501C50.6724 49.3515 50.6772 49.3541 50.6818 49.3568C50.6772 49.3541 50.6724 49.3515 50.668 49.3501Z" fill="#FCFBF7"/>
<path d="M50.2383 49.0707C50.3077 49.004 50.3786 48.94 50.4512 48.8774C50.3786 48.94 50.3077 49.004 50.2383 49.0707Z" fill="#FCFBF7"/>
<path d="M33.7109 64.0821C33.887 64.1448 34.0645 64.2034 34.2427 64.2581C34.0645 64.2034 33.887 64.1448 33.7109 64.0821Z" fill="#FCFBF7"/>
<path d="M35.8164 64.6314C36.1441 64.6874 36.4733 64.7287 36.8034 64.7567C36.4733 64.7287 36.1441 64.686 35.8164 64.6314Z" fill="#FCFBF7"/>
<path d="M55.6816 79.2224C55.5991 79.0948 55.5111 78.9719 55.4203 78.8511C55.2662 78.7089 55.106 78.5719 54.9412 78.44C54.4451 78.0977 53.9412 77.7671 53.4313 77.4458L46.3893 74.4033L45.5074 74.8952C45.5012 74.8969 45.4954 74.8991 45.4892 74.9008C45.4626 74.9081 45.4355 74.9147 45.4086 74.9215C45.3951 74.9248 45.3818 74.9285 45.3683 74.9317C45.3277 74.9416 45.2867 74.9507 45.2458 74.9593C45.1829 74.9727 45.1197 74.9851 45.0564 74.9969C44.9297 75.0207 44.8026 75.0417 44.6748 75.0608C44.5473 75.0798 44.4192 75.0969 44.2909 75.1125C44.2791 75.1141 44.2672 75.1152 44.2553 75.1166C44.1389 75.1306 44.0224 75.144 43.9059 75.1564C43.8722 75.16 43.8386 75.1634 43.8049 75.1669C43.7745 75.1701 43.744 75.1733 43.7136 75.1765C43.6404 75.184 43.5672 75.1914 43.4941 75.1989C43.4167 75.2068 43.3392 75.2134 43.2619 75.2208C43.1845 75.2281 43.1071 75.236 43.0297 75.2426C42.7392 75.2677 42.4483 75.2887 42.1572 75.3057C41.8662 75.3226 41.5748 75.3353 41.2833 75.3439C41.089 75.3498 40.8946 75.3537 40.7003 75.3558C40.5448 75.3574 40.3892 75.3579 40.2338 75.3573C40.0782 75.3566 39.9227 75.3547 39.7672 75.3517C39.4758 75.3461 39.1831 75.3383 38.8898 75.3267C38.78 75.3225 38.6698 75.3174 38.5599 75.3119C38.3811 75.3029 38.2025 75.2917 38.024 75.2788C37.8727 75.2677 37.7214 75.2557 37.5704 75.2414C37.4607 75.231 37.3513 75.2196 37.242 75.2072C36.914 75.1698 36.5878 75.1229 36.2647 75.0639C36.2164 75.0549 36.1684 75.0445 36.1203 75.0349C36.0722 75.0253 36.0238 75.0165 35.9758 75.0061C35.9028 74.9901 35.8301 74.9723 35.7575 74.9541C35.7348 74.9485 35.712 74.9439 35.6895 74.938C35.642 74.9257 35.5947 74.9129 35.5475 74.8997C35.5192 74.8917 35.4912 74.883 35.4631 74.8743C35.4562 74.8722 35.4492 74.8702 35.4422 74.868C35.3105 74.8284 35.181 74.7834 35.0532 74.7347C35.0105 74.7186 34.9673 74.7035 34.9253 74.6862C34.858 74.6585 34.7914 74.6291 34.7256 74.5982C34.6598 74.5674 34.5947 74.535 34.5308 74.501C34.4666 74.4669 34.4034 74.4313 34.3412 74.3937C34.2949 74.3658 34.2505 74.3347 34.2055 74.3048C34.1698 74.2812 34.133 74.2592 34.0979 74.2343C34.0371 74.1909 33.9779 74.145 33.9195 74.0978C33.8366 74.0306 33.7564 73.9593 33.6789 73.8833C33.6789 73.8833 26.1186 77.1655 25.6707 77.4421C25.2873 77.6743 24.9094 77.9145 24.5386 78.1639C23.9322 78.6776 23.3435 79.2636 23.0117 79.9864C23.8829 80.532 24.7811 81.0382 25.7043 81.5022C30.1552 83.739 35.1809 85.0001 40.5018 85.0001C45.8228 85.0001 50.8484 83.739 55.2992 81.5022C55.6501 81.3259 55.9977 81.1442 56.3412 80.956C56.3221 80.7973 56.292 80.6391 56.2504 80.4827C56.1306 80.0336 55.9259 79.6002 55.6816 79.2224Z" fill="#FFC860"/>
<path d="M32.9222 58.6421C32.5828 58.0555 32.2879 57.437 32.0321 56.8051C31.7762 56.1732 31.5593 55.5267 31.3755 54.8801C31.3439 54.7695 31.3141 54.6575 31.2837 54.5469C31.1691 54.1256 31.0627 53.7017 30.965 53.2764C30.9098 53.0365 30.8565 52.7965 30.8066 52.5539L30.8021 52.5312L30.8014 52.5272L30.5937 51.4274C30.5473 51.1555 30.5055 50.8835 30.4656 50.6103C30.4456 50.4743 30.4254 50.3383 30.407 50.201C30.3738 49.9544 30.3431 49.7078 30.3151 49.4598C30.287 49.2119 30.2615 48.9639 30.2387 48.716C30.2247 48.5653 30.2123 48.4133 30.2003 48.2614C30.1846 48.0614 30.1698 47.8614 30.1573 47.6602C30.157 47.6562 30.1569 47.6508 30.1566 47.6468C30.1442 47.4482 30.1335 47.2509 30.1244 47.0523C30.1212 46.9829 30.1189 46.9136 30.1161 46.8443C30.1106 46.7097 30.1054 46.5764 30.1014 46.443C30.0989 46.3604 30.0972 46.2777 30.0953 46.1951C30.0925 46.0751 30.09 45.9538 30.0882 45.8338C30.087 45.7458 30.0864 45.6579 30.0857 45.5712C30.085 45.4552 30.0846 45.3393 30.0849 45.2233C30.0852 45.134 30.0854 45.0433 30.0864 44.954C30.0874 44.8393 30.0892 44.7247 30.0913 44.6101C30.093 44.5207 30.0945 44.4314 30.0966 44.3421C30.0997 44.2248 30.1037 44.1075 30.1077 43.9902C30.1106 43.9035 30.1132 43.8182 30.1166 43.7329C30.1224 43.5942 30.1294 43.4556 30.1365 43.317C30.1398 43.253 30.1446 43.1903 30.1482 43.1263C34.9137 41.3853 39.95 39.239 42.9061 35.0532C42.9231 35.0585 42.9402 35.0638 42.9573 35.0692C44.5524 38.1686 46.8393 40.8614 49.6555 42.9397C49.6568 42.9557 49.6585 42.973 49.6599 42.989C49.674 43.1596 49.6872 43.329 49.6992 43.4996C49.7055 43.5876 49.7107 43.6756 49.7164 43.7635C49.7235 43.8729 49.7308 43.9822 49.7371 44.0915C49.7423 44.1821 49.7468 44.2728 49.7515 44.3648C49.7569 44.4714 49.7623 44.5794 49.7671 44.6874C49.7709 44.7767 49.7745 44.866 49.7779 44.9553C49.782 45.066 49.7859 45.1766 49.7892 45.2873C49.7919 45.3739 49.7943 45.4606 49.7964 45.5472C49.7992 45.6632 49.8013 45.7792 49.8033 45.8965C49.8045 45.9765 49.806 46.0564 49.8068 46.1378C49.8083 46.2684 49.8087 46.3977 49.8089 46.5284C49.8089 46.595 49.8095 46.6617 49.8093 46.7297C49.8087 46.927 49.8069 47.1242 49.8036 47.3215C49.7985 47.6055 49.7909 47.8894 49.7803 48.1747C49.7745 48.3267 49.7676 48.48 49.7599 48.6333C49.7521 48.7866 49.7435 48.9386 49.7343 49.0919C49.7268 49.2172 49.7183 49.3438 49.71 49.4691C49.7059 49.5318 49.7024 49.5945 49.6977 49.6571C49.6861 49.8144 49.674 49.9717 49.6608 50.1277C49.6478 50.285 49.6336 50.4423 49.6183 50.5983C49.5954 50.8342 49.5704 51.0688 49.5431 51.3035C49.5232 51.4754 49.5014 51.6474 49.478 51.8194C49.4732 51.8527 49.4682 51.8874 49.4634 51.922C49.4411 52.0807 49.4179 52.2406 49.3927 52.4006C49.3845 52.4513 49.3758 52.5032 49.3673 52.5539C49.3658 52.5632 49.3645 52.5712 49.363 52.5806C49.3401 52.7179 49.3165 52.8552 49.291 52.9925C49.2229 53.3618 49.1454 53.7297 49.0577 54.095C49.0285 54.2176 48.9981 54.3389 48.9665 54.4602C48.9246 54.6228 48.8804 54.7828 48.834 54.9441C48.7723 55.1574 48.7067 55.3707 48.637 55.5813C48.544 55.864 48.4437 56.1426 48.3357 56.4172C48.326 56.4425 48.3156 56.4665 48.3057 56.4918C48.2819 56.5518 48.2583 56.6105 48.2337 56.6705C48.197 56.7598 48.1582 56.8478 48.1195 56.9358C48.0491 57.0971 47.977 57.257 47.9007 57.4157C47.7828 57.661 47.6575 57.9022 47.5247 58.1395C47.5052 58.1742 47.4851 58.2075 47.4655 58.2422C47.4402 58.2862 47.4152 58.3302 47.3894 58.3742C47.3572 58.4288 47.3246 58.4821 47.2918 58.5368C47.2842 58.5488 47.2769 58.5621 47.2691 58.5741C47.1472 58.7727 47.0193 58.9674 46.8855 59.158C46.8605 59.194 46.8347 59.2287 46.8093 59.2647C46.7742 59.3126 46.7395 59.362 46.7035 59.4113C46.6416 59.4939 46.5785 59.5766 46.5142 59.6592C46.2569 59.9858 45.9798 60.3005 45.6814 60.6004C45.5392 60.743 45.3921 60.8817 45.2407 61.015C45.1342 61.1083 45.0256 61.199 44.9148 61.2869C44.6675 61.4856 44.4091 61.6682 44.1433 61.8388C44.0519 61.8962 43.9604 61.9548 43.867 62.0095C43.813 62.0415 43.7585 62.0735 43.7038 62.1041C43.6326 62.1441 43.56 62.1814 43.4877 62.2201C43.3383 62.2988 43.1874 62.3747 43.0339 62.4441C42.8008 62.5494 42.563 62.644 42.3222 62.728C42.1826 62.7773 42.0418 62.8213 41.9 62.8627C41.8689 62.872 41.8381 62.8826 41.807 62.8906C41.787 62.896 41.7666 62.9 41.7466 62.9053C41.6469 62.9333 41.547 62.9586 41.4466 62.9813C41.3909 62.9946 41.3348 63.004 41.2789 63.016C41.2136 63.028 41.1485 63.0426 41.0831 63.0546C41.0186 63.0666 40.9535 63.0746 40.8887 63.0839C40.8314 63.0933 40.7745 63.1026 40.7169 63.1106C40.6616 63.1173 40.6058 63.1239 40.5503 63.1293C40.5445 63.1306 40.5389 63.1306 40.5332 63.1319C40.3696 63.1479 40.2055 63.1573 40.0413 63.1626C39.959 63.1653 39.8771 63.1693 39.7948 63.1693C39.7099 63.1693 39.6251 63.1653 39.5402 63.1613C39.4978 63.1599 39.4554 63.1599 39.413 63.1586C39.2936 63.1519 39.1741 63.1413 39.0549 63.1279C38.9934 63.1213 38.9318 63.1146 38.8703 63.1053C38.7486 63.0893 38.6272 63.0693 38.506 63.0453C38.2739 63 38.043 62.9426 37.8138 62.872C37.7375 62.848 37.6612 62.824 37.5852 62.7973C37.4839 62.7613 37.3831 62.724 37.2826 62.6827C37.2486 62.6694 37.2147 62.6547 37.1809 62.64C37.0789 62.5974 36.9775 62.552 36.8767 62.5027C36.7567 62.4454 36.639 62.3841 36.5234 62.3214C36.4657 62.2894 36.4085 62.2574 36.3517 62.2241C36.2951 62.1921 36.2389 62.1574 36.1833 62.1241C36.0999 62.0721 36.0175 62.0201 35.9365 61.9655C35.8554 61.9122 35.7754 61.8575 35.6966 61.8002C35.681 61.7895 35.6658 61.7775 35.6504 61.7669C35.6136 61.7402 35.5768 61.7135 35.5407 61.6869C34.9489 61.2416 34.4243 60.7244 33.9595 60.1552C33.6805 59.8139 33.4229 59.4526 33.1852 59.078C33.0949 58.934 33.0071 58.7901 32.9222 58.6421ZM30.1542 52.5686C30.1037 52.6179 30.0509 52.6646 29.9961 52.7085C29.9706 52.7299 29.9441 52.7485 29.9177 52.7672C29.9064 52.7765 29.8956 52.7845 29.884 52.7939C29.7312 52.9018 29.5654 52.9912 29.3906 53.0605C29.3469 53.0765 29.3026 53.0925 29.2578 53.1071C29.2132 53.1218 29.168 53.1365 29.1224 53.1485C29.054 53.1658 28.9846 53.1818 28.9144 53.1938C28.8443 53.2058 28.7735 53.2151 28.7021 53.2204C28.6545 53.2244 28.6068 53.2271 28.5588 53.2284C28.5348 53.2298 28.5107 53.2284 28.4865 53.2284C28.4625 53.2284 28.4385 53.2284 28.4144 53.2284C28.3663 53.2258 28.318 53.2231 28.2696 53.2191C28.2252 53.2138 28.1811 53.2085 28.1375 53.2018C28.1275 53.2005 28.1177 53.1991 28.1077 53.1964C28.0741 53.1911 28.0406 53.1858 28.0073 53.1791C27.8702 53.1525 27.7364 53.1151 27.6064 53.0685C27.5631 53.0538 27.5202 53.0365 27.4776 53.0192C27.3502 52.9672 27.2268 52.9045 27.1077 52.8352C27.068 52.8125 27.0288 52.7885 26.9901 52.7632C26.874 52.6885 26.7626 52.6059 26.6562 52.5179C26.4788 52.3699 26.3156 52.2033 26.1686 52.0247C26.1223 51.9674 26.0776 51.91 26.0346 51.8514C25.9917 51.7927 25.9503 51.7327 25.9107 51.6714C25.8803 51.6248 25.8509 51.5768 25.8225 51.5288C25.7942 51.4808 25.7669 51.4314 25.7408 51.3835C25.6749 51.2595 25.6135 51.1302 25.5572 50.9982C25.3318 50.4676 25.1869 49.8731 25.156 49.2838C25.1328 48.8413 25.1737 48.4013 25.2929 47.9934C25.4167 47.5695 25.6411 47.2029 25.9367 46.927C26.0879 46.7856 26.2577 46.6697 26.4425 46.5817C26.5336 46.5377 26.6282 46.5017 26.7259 46.4724C26.8238 46.443 26.9247 46.4217 27.0283 46.4084C27.132 46.395 27.2382 46.3897 27.3469 46.3924C27.4555 46.3964 27.5663 46.4084 27.6791 46.4297C28.0853 46.5057 28.4437 46.6697 28.7614 46.8936C28.8674 46.9683 28.9687 47.0496 29.0659 47.1349C29.2213 47.2736 29.3658 47.4269 29.5006 47.5882C29.5681 47.6695 29.633 47.7535 29.6955 47.8388C29.6963 47.8495 29.697 47.8588 29.6978 47.8694C29.6986 47.8788 29.6994 47.8894 29.7 47.9001C29.7047 47.9654 29.71 48.0294 29.7148 48.0947C29.7198 48.1601 29.7244 48.2254 29.7298 48.2907C29.7367 48.3773 29.7444 48.4653 29.752 48.552C29.7559 48.5946 29.7594 48.6386 29.7632 48.6826C29.7752 48.8119 29.7879 48.9426 29.8011 49.0732C29.8077 49.1385 29.8151 49.2025 29.8221 49.2678C29.8291 49.3332 29.8357 49.3985 29.8431 49.4625C29.8275 49.4452 29.8113 49.4278 29.7955 49.4105C29.7875 49.4012 29.7796 49.3932 29.7716 49.3838C29.724 49.3318 29.6755 49.2799 29.6262 49.2292C29.6138 49.2159 29.6015 49.2039 29.5892 49.1905C29.577 49.1785 29.5647 49.1652 29.5522 49.1532C29.5147 49.1159 29.4766 49.0786 29.4381 49.0426C29.3612 48.9692 29.2825 48.8999 29.202 48.8319C29.1617 48.7973 29.1211 48.7653 29.0799 48.732C28.9154 48.6026 28.7439 48.4827 28.5658 48.3773C28.5035 48.3414 28.4392 48.3054 28.3736 48.2734C28.3408 48.2574 28.3076 48.2427 28.274 48.228C28.207 48.1987 28.1386 48.1734 28.0694 48.1507C28.0347 48.1401 27.9998 48.1294 27.9649 48.1214C27.8948 48.1027 27.8238 48.0881 27.7527 48.0774C27.6893 48.0694 27.6256 48.0641 27.5619 48.0627C27.53 48.0627 27.4982 48.0627 27.4663 48.0641C27.4345 48.0654 27.4026 48.0681 27.3709 48.0721C27.339 48.0747 27.3073 48.0801 27.2756 48.0854C27.244 48.0921 27.2124 48.0987 27.1808 48.1067C27.1704 48.1094 27.16 48.1134 27.1494 48.1161C27.1285 48.1227 27.1076 48.1281 27.0867 48.1347C27.0759 48.1387 27.0651 48.1427 27.0541 48.1467C27.0433 48.1507 27.0325 48.1547 27.0217 48.1587C26.8584 48.2241 26.7114 48.3174 26.5898 48.4347C26.5493 48.4733 26.5114 48.5147 26.4769 48.5587C26.4405 48.604 26.4077 48.652 26.3788 48.7026C26.3355 48.7799 26.3009 48.8613 26.2768 48.9466C26.2607 49.0039 26.2491 49.0626 26.2425 49.1239C26.2392 49.1545 26.2372 49.1852 26.2364 49.2159C26.2364 49.2185 26.2363 49.2212 26.2361 49.2239C26.2359 49.2292 26.2355 49.2345 26.2355 49.2399C26.2353 49.2705 26.24 49.2985 26.2485 49.3225C26.2571 49.3478 26.2693 49.3692 26.2845 49.3878C26.2897 49.3932 26.2959 49.3985 26.3016 49.4038C26.3073 49.4092 26.3124 49.4145 26.3185 49.4198C26.3248 49.4252 26.3319 49.4278 26.3385 49.4318C26.3585 49.4438 26.3799 49.4545 26.4028 49.4611C26.4181 49.4651 26.4337 49.4678 26.4497 49.4691C26.4654 49.4705 26.4814 49.4705 26.4973 49.4691C26.5324 49.4665 26.5658 49.4558 26.5965 49.4398C26.6026 49.4358 26.6094 49.4345 26.6153 49.4305C26.6327 49.4198 26.6486 49.4065 26.6625 49.3905C26.6762 49.3745 26.6878 49.3558 26.6966 49.3358C26.7025 49.3212 26.707 49.3065 26.7102 49.2905C26.7134 49.2745 26.715 49.2572 26.715 49.2399C26.7151 49.1959 26.7207 49.1559 26.7289 49.1159C26.7315 49.1026 26.7334 49.0892 26.737 49.0759C26.7405 49.0626 26.7455 49.0506 26.7499 49.0386C26.7629 49.0012 26.778 48.9652 26.7974 48.9319C26.8492 48.8413 26.9226 48.7653 27.0091 48.7053C27.0305 48.6906 27.0531 48.676 27.0761 48.6626C27.0993 48.6493 27.123 48.6373 27.1474 48.6266C27.1718 48.6146 27.1968 48.6053 27.222 48.596C27.2474 48.5866 27.2732 48.5787 27.2993 48.572C27.3187 48.5667 27.3385 48.5613 27.3582 48.5573C27.3781 48.5533 27.3981 48.5493 27.4181 48.5467C27.4579 48.5413 27.498 48.5387 27.538 48.5387C27.5647 48.5373 27.5912 48.5386 27.6175 48.5413C27.6723 48.5453 27.726 48.5547 27.7792 48.5653C27.8059 48.5707 27.8326 48.576 27.8588 48.5826C27.9376 48.604 28.0146 48.632 28.0899 48.6653C28.1006 48.6693 28.1111 48.6746 28.1218 48.68C28.1326 48.6853 28.1434 48.6893 28.1539 48.6946C28.1822 48.7079 28.2098 48.724 28.2375 48.7386C28.2514 48.7466 28.2656 48.7533 28.2794 48.7613C28.3103 48.7786 28.3408 48.7973 28.3709 48.8159C28.4012 48.8346 28.4311 48.8546 28.4605 48.8746C28.4999 48.9012 28.5385 48.9292 28.5765 48.9572C28.586 48.9652 28.5953 48.9719 28.6048 48.9786C28.6142 48.9866 28.6237 48.9932 28.633 49.0012C28.6016 49.0172 28.5709 49.0346 28.541 49.0532C28.4965 49.0812 28.454 49.1105 28.4137 49.1439C28.3735 49.1772 28.3355 49.2119 28.2998 49.2492C28.2879 49.2625 28.2771 49.2759 28.2656 49.2892C28.2543 49.3012 28.2424 49.3145 28.2316 49.3278C28.21 49.3545 28.1895 49.3812 28.1702 49.4105C28.1411 49.4531 28.1147 49.4971 28.0911 49.5425C28.0438 49.6345 28.0074 49.7318 27.9834 49.8331C27.9773 49.8584 27.9745 49.8837 27.97 49.9091C27.9656 49.9357 27.9594 49.9611 27.9566 49.9864C27.9528 50.021 27.9504 50.0557 27.9494 50.0917C27.9485 50.1264 27.949 50.161 27.9512 50.197C27.9532 50.233 27.9568 50.2677 27.9618 50.3037C27.967 50.3396 27.9738 50.3743 27.9821 50.4103C27.9877 50.4343 27.9956 50.4543 28.0053 50.473C28.0127 50.4863 28.0213 50.4996 28.0306 50.5103C28.0401 50.5209 28.0503 50.5303 28.0614 50.5396C28.0779 50.5516 28.0965 50.5609 28.1157 50.5676C28.1221 50.5689 28.1282 50.5729 28.1349 50.5743C28.149 50.5783 28.1634 50.5796 28.1781 50.5809C28.1927 50.5823 28.2075 50.5823 28.2223 50.5796C28.2371 50.5783 28.2519 50.5756 28.2662 50.5716C28.2711 50.5703 28.2756 50.5676 28.2803 50.5663C28.2899 50.5636 28.2995 50.5609 28.3086 50.5569C28.3223 50.5503 28.3355 50.5423 28.3479 50.5343C28.3604 50.5263 28.372 50.517 28.3828 50.5063C28.3936 50.4956 28.4035 50.4836 28.412 50.4716C28.4164 50.465 28.4193 50.4583 28.4231 50.4516C28.4268 50.445 28.4312 50.4383 28.4343 50.4316C28.4403 50.417 28.4448 50.4023 28.4479 50.3863C28.4493 50.3783 28.4492 50.3703 28.4499 50.3623C28.4519 50.337 28.4512 50.3103 28.4447 50.2823C28.4403 50.2637 28.4367 50.2463 28.4339 50.2277C28.4168 50.117 28.4256 50.0077 28.456 49.9037C28.4611 49.8864 28.4667 49.8691 28.4729 49.8531C28.4855 49.8184 28.5001 49.7864 28.5171 49.7544C28.534 49.7238 28.553 49.6931 28.5741 49.6638C28.5765 49.6611 28.5792 49.6571 28.5816 49.6544C28.5865 49.6478 28.5914 49.6425 28.5965 49.6358C28.604 49.6265 28.6109 49.6171 28.6188 49.6078C28.6306 49.5945 28.6429 49.5811 28.6557 49.5678C28.6685 49.5558 28.6816 49.5438 28.6952 49.5318C28.7053 49.5225 28.7165 49.5145 28.7271 49.5065C28.7593 49.4811 28.7926 49.4585 28.8286 49.4385C28.8526 49.4252 28.8774 49.4132 28.903 49.4025C28.9286 49.3918 28.9548 49.3825 28.9819 49.3745C28.9855 49.3745 28.9886 49.3732 28.992 49.3718C28.9991 49.3692 29.0062 49.3665 29.0127 49.3638C29.0223 49.3598 29.0314 49.3545 29.04 49.3505C29.069 49.3772 29.096 49.4052 29.1244 49.4332C29.2662 49.5691 29.4029 49.7104 29.5311 49.8597C29.6594 50.0077 29.7792 50.1624 29.894 50.3223C29.9169 50.3543 29.9412 50.385 29.9636 50.417C30.0337 50.9182 30.1141 51.4181 30.2049 51.9167C30.2351 52.0833 30.2665 52.2486 30.2991 52.4153C30.2533 52.4686 30.2047 52.5206 30.1542 52.5686ZM49.9222 52.1047C49.9561 51.8754 49.9876 51.6474 50.0167 51.4181C50.0362 51.2648 50.0546 51.1115 50.0721 50.9582C50.0861 50.8356 50.0993 50.7129 50.1119 50.5903C50.1161 50.5489 50.1198 50.5089 50.1239 50.4676C50.1319 50.3863 50.1403 50.3037 50.1479 50.2223C50.1593 50.0984 50.1701 49.9757 50.18 49.8531C50.1991 49.8304 50.2187 49.8091 50.238 49.7877C50.2574 49.7664 50.2763 49.7438 50.296 49.7224C50.3744 49.6371 50.4549 49.5531 50.5381 49.4705C50.5589 49.4505 50.5802 49.4305 50.6013 49.4105C50.6118 49.3998 50.6225 49.3905 50.633 49.3798C50.6434 49.3705 50.6538 49.3598 50.6646 49.3505C50.669 49.3518 50.6738 49.3545 50.6784 49.3572C50.6829 49.3598 50.6872 49.3612 50.6921 49.3638C50.6952 49.3652 50.6989 49.3665 50.7024 49.3678C50.709 49.3705 50.7156 49.3732 50.7229 49.3745C50.8983 49.4251 51.044 49.5385 51.1425 49.6824C51.1653 49.7158 51.1864 49.7504 51.2037 49.7864C51.2089 49.7971 51.2131 49.8091 51.2177 49.8197C51.2208 49.8277 51.224 49.8344 51.2271 49.8411C51.2287 49.8451 51.2304 49.8491 51.2317 49.8531C51.236 49.8637 51.2381 49.8757 51.2416 49.8877C51.2486 49.9104 51.2561 49.9331 51.2613 49.9557C51.2638 49.9677 51.2669 49.9797 51.2689 49.9917C51.2769 50.0384 51.2805 50.0877 51.2792 50.1357C51.2784 50.1597 51.2765 50.185 51.2734 50.209C51.2702 50.2343 51.2657 50.2583 51.2601 50.2823C51.2534 50.3103 51.2516 50.337 51.2534 50.3623C51.2545 50.3743 51.2565 50.3876 51.2593 50.3983C51.2637 50.4156 51.27 50.4316 51.2778 50.4476C51.2858 50.4623 51.2954 50.477 51.3064 50.489C51.321 50.5063 51.3381 50.5223 51.3568 50.5343C51.3756 50.5476 51.3958 50.5569 51.417 50.5649C51.4381 50.5729 51.4602 50.5783 51.4823 50.5796C51.4971 50.5823 51.5119 50.5823 51.5266 50.5809C51.5413 50.5796 51.5558 50.5783 51.5699 50.5743C51.591 50.5689 51.6111 50.5609 51.6296 50.5489C51.6482 50.5369 51.6651 50.5223 51.6796 50.5036C51.6923 50.4863 51.7024 50.4663 51.7108 50.445C51.7151 50.433 51.7196 50.4223 51.7226 50.4103C51.7288 50.3836 51.7342 50.357 51.7387 50.3303C51.742 50.3103 51.7434 50.2903 51.7456 50.2703C51.7528 50.2103 51.7568 50.1504 51.7552 50.0917C51.7543 50.0557 51.7519 50.021 51.748 49.9864C51.7443 49.9517 51.739 49.9171 51.7323 49.8837C51.73 49.8717 51.7271 49.8597 51.7246 49.8491C51.7219 49.8371 51.7196 49.8251 51.7167 49.8144C51.6962 49.7331 51.6678 49.6544 51.6322 49.5798C51.5966 49.5051 51.5539 49.4345 51.5046 49.3678C51.4765 49.3305 51.4461 49.2945 51.4138 49.2585C51.3169 49.1559 51.2017 49.0665 51.0716 49.0012C51.084 48.9906 51.0967 48.9812 51.1092 48.9719C51.1156 48.9679 51.1219 48.9626 51.1281 48.9572C51.1408 48.9479 51.154 48.9399 51.1668 48.9306C51.1924 48.9119 51.218 48.8932 51.2441 48.8746C51.2638 48.8613 51.2836 48.8479 51.3036 48.8359C51.3436 48.8093 51.3841 48.7853 51.4254 48.7613C51.4322 48.7573 51.4393 48.7533 51.4462 48.7506C51.4602 48.7426 51.4741 48.7359 51.4881 48.7279C51.5298 48.7053 51.5722 48.6853 51.6152 48.6666C51.6259 48.6613 51.6367 48.6573 51.6475 48.652C51.6583 48.648 51.6688 48.6426 51.6798 48.6386C51.7015 48.6293 51.7239 48.6226 51.746 48.6146C51.768 48.608 51.7899 48.5986 51.8121 48.592C51.8457 48.5826 51.8796 48.5733 51.9139 48.5666C51.9365 48.5613 51.9596 48.5573 51.9826 48.5546C51.9942 48.552 52.0056 48.5493 52.0172 48.548C52.0404 48.5453 52.0637 48.5426 52.0872 48.5413C52.1134 48.5386 52.1399 48.5373 52.1666 48.5387C52.1866 48.5387 52.2066 48.5386 52.2266 48.5413C52.2467 48.5426 52.2666 48.5453 52.2866 48.548C52.3115 48.552 52.3364 48.556 52.3611 48.5613C52.3758 48.5653 52.3908 48.568 52.4055 48.572C52.425 48.576 52.4444 48.5826 52.4636 48.5893C52.5115 48.6053 52.558 48.6253 52.6023 48.648C52.6465 48.672 52.6885 48.6986 52.7274 48.7279C52.7664 48.7586 52.8022 48.7919 52.834 48.8293C52.9295 48.9386 52.9893 49.0772 52.9897 49.2399C52.9897 49.2572 52.9913 49.2732 52.9942 49.2892C52.9971 49.3038 53.0015 49.3185 53.007 49.3318C53.0124 49.3465 53.0191 49.3585 53.0267 49.3705C53.0344 49.3812 53.0431 49.3918 53.0527 49.4012C53.0622 49.4105 53.0726 49.4198 53.0836 49.4278C53.1058 49.4425 53.1304 49.4531 53.1564 49.4611C53.1694 49.4638 53.1827 49.4665 53.1961 49.4678C53.2124 49.4705 53.2288 49.4705 53.2452 49.4705C53.2533 49.4691 53.2613 49.4678 53.2696 49.4665C53.2776 49.4651 53.2859 49.4651 53.2937 49.4638C53.2977 49.4625 53.3015 49.4611 53.3053 49.4598C53.3091 49.4585 53.3129 49.4572 53.3168 49.4558C53.322 49.4532 53.3271 49.4518 53.3323 49.4505C53.3348 49.4491 53.3375 49.4491 53.3399 49.4478C53.3448 49.4451 53.3491 49.4425 53.3539 49.4398C53.3633 49.4345 53.3729 49.4292 53.3817 49.4238C53.3946 49.4145 53.4066 49.4025 53.4173 49.3905C53.428 49.3785 53.4374 49.3638 53.445 49.3492C53.4477 49.3438 53.4489 49.3372 53.451 49.3318C53.4554 49.3212 53.4602 49.3105 53.463 49.2985C53.4672 49.2799 53.4694 49.2612 53.4693 49.2399C53.469 49.1705 53.4625 49.1025 53.4501 49.0372C53.4377 48.9719 53.4194 48.9093 53.396 48.8493C53.3491 48.728 53.2811 48.6173 53.1966 48.52C53.1798 48.5 53.1622 48.4813 53.144 48.4627C53.1395 48.4573 53.1344 48.4533 53.1298 48.4493C53.1202 48.44 53.1107 48.432 53.1011 48.4227C53.0726 48.396 53.0411 48.372 53.0102 48.348C52.9947 48.336 52.9809 48.3214 52.9647 48.3107C52.9503 48.3 52.9354 48.2907 52.9205 48.2814C52.8463 48.2334 52.7669 48.1921 52.683 48.1587C52.6476 48.1441 52.6119 48.1321 52.5761 48.1214C52.5045 48.1001 52.4323 48.0841 52.3596 48.0747C52.3234 48.0707 52.2871 48.0681 52.2507 48.0654C52.2301 48.0641 52.2093 48.0627 52.1885 48.0614C52.122 48.0614 52.0554 48.0654 51.9893 48.0734C51.952 48.0774 51.9148 48.0827 51.8779 48.0894C51.8037 48.1027 51.7304 48.1214 51.6579 48.1441C51.5447 48.1787 51.4342 48.224 51.3273 48.2774C51.2632 48.308 51.1999 48.3414 51.1388 48.3773C51.058 48.4253 50.9784 48.476 50.9004 48.5293C50.8614 48.556 50.8237 48.5853 50.7853 48.6133C50.747 48.6413 50.708 48.668 50.6702 48.696C50.595 48.7546 50.521 48.8146 50.4487 48.8773C50.3761 48.9399 50.3052 49.0039 50.2358 49.0706C50.2412 48.9786 50.2459 48.8879 50.2508 48.7959C50.2532 48.7506 50.2562 48.704 50.2584 48.6586C50.2606 48.6133 50.2623 48.5666 50.2644 48.5213C50.2686 48.4293 50.273 48.3374 50.2766 48.2467C50.2866 47.9908 50.294 47.7348 50.299 47.4775C50.4128 47.3495 50.5335 47.2282 50.6613 47.1163C50.7893 47.0043 50.9244 46.9016 51.0675 46.811C51.2107 46.7203 51.3617 46.6417 51.5211 46.5777C51.6806 46.5124 51.8485 46.463 52.0256 46.4297C52.1455 46.4071 52.2634 46.3951 52.3786 46.3924C52.4171 46.3911 52.4552 46.3924 52.4929 46.3937C52.6948 46.4004 52.8877 46.4377 53.0688 46.5017C53.1142 46.5164 53.1587 46.535 53.2025 46.5537C53.3129 46.6017 53.4184 46.6603 53.518 46.727C53.8854 46.9749 54.1741 47.3482 54.3455 47.7961C54.3701 47.8601 54.3921 47.9254 54.4118 47.9934C54.4515 48.1294 54.4826 48.268 54.5054 48.4107C54.5368 48.6053 54.5528 48.8053 54.5547 49.0079C54.5562 49.1585 54.5496 49.3105 54.5358 49.4625C54.4943 49.9197 54.3866 50.3743 54.2282 50.7969C54.2026 50.8649 54.1757 50.9315 54.1476 50.9982C54.0912 51.1302 54.0299 51.2595 53.964 51.3835C53.9225 51.4608 53.8782 51.5368 53.8314 51.6127C53.7844 51.6874 53.7348 51.7607 53.6829 51.834C53.6638 51.8594 53.6435 51.8847 53.6237 51.9114C53.5794 51.9687 53.5338 52.026 53.4864 52.0807C53.4802 52.0887 53.4744 52.0953 53.4681 52.1033C53.4534 52.1206 53.4394 52.138 53.4245 52.154C53.4026 52.178 53.3784 52.2006 53.3557 52.2246C53.3096 52.2726 53.264 52.3206 53.2156 52.3673C53.1375 52.4406 53.0562 52.5113 52.9719 52.5779C52.8877 52.6446 52.8005 52.7072 52.7106 52.7659C52.6207 52.8232 52.528 52.8765 52.4328 52.9258C52.3375 52.9738 52.2398 53.0165 52.1395 53.0551C52.0724 53.0805 52.0041 53.1031 51.9348 53.1231C51.8656 53.1431 51.7953 53.1605 51.7243 53.1751C51.6572 53.1885 51.5891 53.1991 51.5205 53.2085C51.4922 53.2111 51.4638 53.2164 51.4351 53.2191C51.4169 53.2204 51.3986 53.2218 51.3805 53.2231C51.3622 53.2244 51.344 53.2258 51.3258 53.2271C51.2894 53.2284 51.2532 53.2298 51.2169 53.2298C51.1988 53.2298 51.1807 53.2284 51.1625 53.2284C51.1445 53.2284 51.1264 53.2284 51.1084 53.2271C50.9911 53.2231 50.8749 53.2098 50.7607 53.1885C50.675 53.1725 50.591 53.1498 50.5081 53.1245C50.4804 53.1165 50.4524 53.1098 50.4251 53.1005C50.41 53.0951 50.3955 53.0885 50.3805 53.0831C50.3134 53.0591 50.2475 53.0311 50.1827 53.0005C50.1577 52.9898 50.1321 52.9792 50.1074 52.9658C50.0563 52.9405 50.0062 52.9125 49.9572 52.8818C49.9081 52.8525 49.8601 52.8205 49.8135 52.7872C49.8521 52.5606 49.8884 52.3326 49.9222 52.1047ZM33.6202 73.8283C33.6444 71.294 33.6682 68.7597 33.6923 66.2247C33.6929 66.1727 33.6933 66.1194 33.6938 66.0661C33.6944 66.0127 33.6949 65.9594 33.6954 65.9061C33.7011 65.2982 33.7069 64.6903 33.7126 64.0824C33.8887 64.1451 34.0661 64.2037 34.2444 64.2584C34.2634 64.2637 34.2824 64.2704 34.3014 64.2757C34.4794 64.3304 34.6582 64.3797 34.8379 64.425C35.0176 64.4717 35.1981 64.513 35.3791 64.5503C35.3988 64.5543 35.4187 64.557 35.4384 64.561C35.5637 64.5863 35.6892 64.6103 35.8149 64.6317C36.1426 64.6863 36.4718 64.729 36.8019 64.757C37.1318 64.785 37.4627 64.801 37.7933 64.8023C37.9685 64.8036 38.1436 64.7983 38.3187 64.7916C38.3784 64.7903 38.4383 64.789 38.498 64.785C38.7326 64.773 38.9668 64.7543 39.2001 64.7276C39.2986 64.717 39.397 64.705 39.4951 64.6916C39.6746 64.6676 39.8533 64.6383 40.0316 64.6063C40.3619 64.5463 40.69 64.473 41.0147 64.3864C41.1857 64.341 41.356 64.2917 41.5249 64.2384C41.6982 64.1837 41.8699 64.1237 42.0408 64.0611C42.2435 63.9864 42.4451 63.9078 42.6441 63.8225C42.7664 63.7692 42.8878 63.7145 43.0085 63.6585C43.3704 63.4879 43.7247 63.2986 44.0703 63.0906C44.2429 62.9866 44.4134 62.8786 44.5814 62.7653C44.7493 62.652 44.9149 62.5334 45.0777 62.4107C45.1454 62.3601 45.2123 62.3081 45.2787 62.2561C45.345 62.2041 45.4107 62.1508 45.4757 62.0975C45.5191 62.0615 45.5619 62.0255 45.6046 61.9881C45.6905 61.9162 45.7754 61.8428 45.8593 61.7669C45.942 61.6935 46.0242 61.6189 46.1052 61.5429C46.1863 61.4669 46.2663 61.3896 46.3449 61.3123L46.359 65.9221L46.3594 66.0834L46.36 66.242L46.3721 70.257L46.3844 74.2841C46.3736 74.324 46.3742 74.3648 46.3866 74.4033L53.4286 77.4458C53.6249 69.2507 53.6487 61.0523 53.4958 52.8552C53.4949 52.8112 53.4854 52.7712 53.4693 52.7379C53.685 52.5672 53.8086 52.4406 53.8086 52.4406C54.126 52.078 54.3839 51.6594 54.5719 51.2141C55.0713 50.033 55.2508 48.528 54.6713 47.3442C54.4097 46.8096 54.0031 46.411 53.5196 46.1738C53.5185 45.9831 53.5158 45.7938 53.5105 45.6045C53.4302 42.8024 53.1096 40.0056 52.5555 37.2581C52.3087 36.033 52.0409 34.7759 51.6592 33.5601C51.4401 32.8616 51.1835 32.1777 50.871 31.5218C50.7885 31.3739 50.7032 31.2272 50.6121 31.0819C50.2084 30.438 49.7257 29.8021 49.1752 29.2276C48.8903 28.961 48.5777 28.7157 48.2692 28.4891C47.7949 28.1411 47.2445 27.7665 46.663 27.4892C46.5386 27.4426 46.413 27.3986 46.286 27.3586C45.9034 27.2586 45.5119 27.188 45.1173 27.148C42.7726 26.9067 40.3912 27.6119 38.2687 28.5544C36.1639 29.4889 34.2194 30.786 32.5399 32.3617C32.1312 32.7443 31.7406 33.1455 31.3671 33.5601C28.4823 36.7648 26.6653 40.8707 26.2179 45.1713C26.1824 45.5125 26.1572 45.8552 26.1396 46.1978C25.6761 46.4377 25.2867 46.827 25.0334 47.3442C24.4538 48.528 24.6335 50.033 25.1328 51.2141C25.2931 51.5941 25.5044 51.954 25.76 52.2766C25.76 52.2766 25.9367 52.4833 26.2435 52.7379C26.2066 52.7819 26.182 52.8392 26.1806 52.9112C26.0097 61.0883 25.8389 69.2652 25.668 77.4421C26.1159 77.1654 33.6762 73.8833 33.6762 73.8833C33.6576 73.8649 33.6386 73.8473 33.6202 73.8283Z" fill="#594E51"/>
<path d="M45.6459 49.4342C46.2687 48.9783 46.3993 47.4212 45.6396 47.0333C45.1828 46.8 44.8831 47.0693 44.7215 47.4866C44.7054 47.5079 44.6915 47.5346 44.6827 47.5652C44.5458 48.0545 44.5013 48.6464 44.708 49.1236C44.8719 49.5022 45.287 49.6968 45.6459 49.4342Z" fill="#273437"/>
<path d="M43.4616 45.1417C43.4823 45.1417 43.5031 45.1417 43.5237 45.1417C43.5564 45.1603 43.5952 45.1737 43.6418 45.1737C44.4677 45.187 45.2934 45.2043 46.1193 45.2137C46.3561 45.215 46.6402 45.2163 46.7986 45.007C46.9702 44.7791 46.8566 44.5111 46.6666 44.3418C45.6883 43.4633 44.0796 43.7819 43.2919 44.7324C43.1661 44.8844 43.2389 45.1457 43.4616 45.1417Z" fill="#273437"/>
<path d="M33.7493 47.0333C32.9895 47.4212 33.1201 48.9783 33.7428 49.4342C34.1018 49.6968 34.5169 49.5022 34.6808 49.1236C34.8875 48.6464 34.8429 48.0545 34.7061 47.5652C34.6973 47.5346 34.6834 47.5079 34.6673 47.4866C34.5057 47.0693 34.206 46.8 33.7493 47.0333Z" fill="#273437"/>
<path d="M33.2715 45.2137C34.0974 45.2043 34.9231 45.187 35.7488 45.1737C35.7956 45.1737 35.8344 45.1603 35.8669 45.1417C35.8877 45.1417 35.9085 45.1417 35.9292 45.1417C36.1519 45.1457 36.2246 44.8844 36.0987 44.7324C35.3112 43.7819 33.7025 43.4633 32.7242 44.3418C32.5342 44.5111 32.4205 44.7791 32.5922 45.007C32.7504 45.2163 33.0346 45.215 33.2715 45.2137Z" fill="#273437"/>
<path d="M38.5451 53.3724C38.8501 53.499 39.1653 53.3511 39.22 53.0178C39.2531 52.8152 39.1775 52.6085 39.1354 52.4139C39.0808 52.1619 39.0371 51.9073 39.007 51.6514C38.8783 50.5596 38.9662 49.4571 39.2513 48.396C39.2715 48.3213 39.2576 48.2573 39.2243 48.208C39.1787 48.02 38.8431 47.9721 38.7504 48.2094C38.3674 49.1878 38.1122 50.2063 37.9873 51.2488C37.9099 51.898 37.7735 53.0511 38.5451 53.3724Z" fill="#273437"/>
<path d="M38.303 56.4809C40.1203 57.1595 42.1826 56.6156 43.4217 55.1225C43.6175 54.8879 43.28 54.5466 43.0825 54.7839C41.9422 56.157 40.1042 56.6436 38.4306 56.0183C38.1412 55.9104 38.0161 56.3743 38.303 56.4809Z" fill="#273437"/>
<path d="M35.5711 52.9898C35.5319 51.938 34.6467 51.1155 33.5941 51.1555C32.5414 51.1941 31.72 52.0793 31.7592 53.1324C31.7985 54.1856 32.6837 55.0067 33.7363 54.9667C34.789 54.9281 35.6104 54.0429 35.5711 52.9898Z" fill="#FF9781"/>
<path d="M44.3256 52.8952C44.3648 53.9483 45.2499 54.7695 46.3027 54.7309C47.3553 54.6909 48.1768 53.8057 48.1375 52.7539C48.0983 51.7008 47.213 50.8796 46.1605 50.9182C45.1078 50.9582 44.2862 51.8434 44.3256 52.8952Z" fill="#FF9781"/>
<path d="M48.5677 48.683C48.5677 50.5881 47.0233 52.1324 45.1183 52.1324C43.2133 52.1324 41.669 50.5881 41.669 48.683C41.669 46.778 43.2133 45.2337 45.1183 45.2337C47.0233 45.2337 48.5677 46.778 48.5677 48.683Z" fill="white" fill-opacity="0.2"/>
<path d="M37.7698 48.2831C37.7698 50.1881 36.2255 51.7325 34.3204 51.7325C32.4154 51.7325 30.8711 50.1881 30.8711 48.2831C30.8711 46.3781 32.4154 44.8337 34.3204 44.8337C36.2255 44.8337 37.7698 46.3781 37.7698 48.2831Z" fill="white" fill-opacity="0.2"/>
<path fill-rule="evenodd" clip-rule="evenodd" d="M45.1183 51.5325C46.692 51.5325 47.9678 50.2568 47.9678 48.683C47.9678 47.1093 46.692 45.8336 45.1183 45.8336C43.5446 45.8336 42.2689 47.1093 42.2689 48.683C42.2689 50.2568 43.5446 51.5325 45.1183 51.5325ZM34.3204 51.1326C35.8942 51.1326 37.1699 49.8568 37.1699 48.2831C37.1699 46.7094 35.8942 45.4336 34.3204 45.4336C32.7467 45.4336 31.471 46.7094 31.471 48.2831C31.471 49.8568 32.7467 51.1326 34.3204 51.1326ZM34.3204 51.7325C36.2255 51.7325 37.7698 50.1881 37.7698 48.2831C37.7698 46.3781 36.2255 44.8337 34.3204 44.8337C32.4154 44.8337 30.8711 46.3781 30.8711 48.2831C30.8711 50.1881 32.4154 51.7325 34.3204 51.7325ZM45.1183 52.1324C47.0233 52.1324 48.5677 50.5881 48.5677 48.683C48.5677 46.778 47.0233 45.2337 45.1183 45.2337C43.2133 45.2337 41.669 46.778 41.669 48.683C41.669 50.5881 43.2133 52.1324 45.1183 52.1324Z" fill="#E4E4E4"/>
<path d="M48.1994 47.5736C49.6839 46.325 49.6492 46.3156 51.3489 46.3156L50.7491 46.6655C49.5493 46.9155 49.8417 46.8165 48.4747 47.9666C48.2382 48.1654 47.9649 47.7702 48.1994 47.5736Z" fill="#E4E4E4"/>
<path d="M31.1288 47.3734C29.6442 46.1248 29.6789 46.1154 27.9792 46.1154L28.579 46.4653C29.7788 46.7153 29.4864 46.6163 30.8535 47.7664C31.0899 47.9652 31.3633 47.57 31.1288 47.3734Z" fill="#E4E4E4"/>
<path d="M37.3915 47.8431C39.0174 46.7851 40.5487 46.8668 42.0833 48.0542C42.3255 48.2405 42.0704 48.6471 41.826 48.4585C40.414 47.3667 39.114 47.2921 37.6168 48.2668C37.3578 48.4352 37.1348 48.0097 37.3915 47.8431Z" fill="#E4E4E4"/>
</g>
<defs>
<linearGradient id="paint0_linear" x1="50.8683" y1="-47.1182" x2="159.145" y2="114.612" gradientUnits="userSpaceOnUse">
<stop stop-color="#FEDC2A"/>
<stop offset="0.51418" stop-color="#DD5789"/>
<stop offset="1" stop-color="#7A2C9E"/>
</linearGradient>
<linearGradient id="paint1_linear" x1="-12.5645" y1="85.5" x2="74.5849" y2="26.695" gradientUnits="userSpaceOnUse">
<stop stop-color="#6466EB"/>
<stop offset="1" stop-color="#D864EB"/>
</linearGradient>
<clipPath id="clip0">
<rect width="81" height="63" fill="white" transform="translate(0.5 15)"/>
</clipPath>
</defs>
</svg>
