<svg width="100" height="100" viewBox="0 0 100 100" fill="none" xmlns="http://www.w3.org/2000/svg">
<path opacity="0.2" d="M23.1195 85.9313C15.9834 81.8898 11.2912 73.2962 11.9375 65.3499C12.6362 57.3551 18.6228 50.0057 21.7164 41.5428C24.7594 33.078 24.8606 23.4474 29.493 17.1587C34.1272 10.8197 43.2945 7.77211 51.1146 9.71987C58.8824 11.7162 65.2 18.7545 72.7315 24.4244C80.263 30.0944 88.9541 34.4948 92.7926 41.5443C96.631 48.5937 95.613 58.3928 90.8629 65.1312C86.111 71.92 77.6268 75.648 70.0632 79.1068C62.5483 82.6177 56.0062 85.8108 47.8956 87.6356C39.8336 89.5126 30.2556 89.9728 23.1195 85.9313Z" fill="url(#paint0_linear)"/>
<g filter="url(#filter0_d)">
<mask id="path-2-inside-1" fill="white">
<path d="M49.5156 22.5499C34.0222 2.07918 20.1056 16.6688 19.0307 22.5698C19.0138 22.6627 18.9963 22.7575 18.9784 22.8545C17.9386 28.4956 15.6148 41.1019 49.4972 72.5387C49.4993 72.5407 49.5006 72.5435 49.5006 72.5463V72.5551C49.5006 72.5607 49.5094 72.5616 49.5135 72.5578C49.5159 72.5555 49.5175 72.5575 49.52 72.5598C49.5219 72.5616 49.5238 72.5634 49.5258 72.5652C49.5289 72.5681 49.5331 72.5695 49.5373 72.5691L49.6142 72.5618C49.6552 72.5579 49.6949 72.5395 49.7251 72.5115C83.5609 41.1048 81.0922 28.4932 80.0529 22.8545C80.035 22.7575 80.0175 22.6627 80.0006 22.5698C78.9256 16.6688 65.009 2.07918 49.5156 22.5499Z"/>
</mask>
<path d="M49.5156 22.5499C34.0222 2.07918 20.1056 16.6688 19.0307 22.5698C19.0138 22.6627 18.9963 22.7575 18.9784 22.8545C17.9386 28.4956 15.6148 41.1019 49.4972 72.5387C49.4993 72.5407 49.5006 72.5435 49.5006 72.5463V72.5551C49.5006 72.5607 49.5094 72.5616 49.5135 72.5578C49.5159 72.5555 49.5175 72.5575 49.52 72.5598C49.5219 72.5616 49.5238 72.5634 49.5258 72.5652C49.5289 72.5681 49.5331 72.5695 49.5373 72.5691L49.6142 72.5618C49.6552 72.5579 49.6949 72.5395 49.7251 72.5115C83.5609 41.1048 81.0922 28.4932 80.0529 22.8545C80.035 22.7575 80.0175 22.6627 80.0006 22.5698C78.9256 16.6688 65.009 2.07918 49.5156 22.5499Z" fill="url(#paint1_linear)"/>
<path d="M19.0307 22.5698L16.0792 22.0321L16.0792 22.0321L19.0307 22.5698ZM49.5156 22.5499L47.1235 24.3604C47.6906 25.1096 48.576 25.5499 49.5156 25.5499C50.4553 25.5499 51.3407 25.1096 51.9077 24.3604L49.5156 22.5499ZM18.9784 22.8545L16.0281 22.3106H16.0281L18.9784 22.8545ZM80.0529 22.8545L77.1026 23.3983V23.3983L80.0529 22.8545ZM80.0006 22.5698L77.0491 23.1074L77.0492 23.1075L80.0006 22.5698ZM49.6142 72.5618L49.3301 69.5753L49.6142 72.5618ZM49.7251 72.5115L51.766 74.7103L49.7251 72.5115ZM49.5258 72.5652L47.4852 74.7644L49.5258 72.5652ZM49.5373 72.5691L49.8215 75.5556L49.5373 72.5691ZM49.52 72.5598L47.4796 74.7592L49.52 72.5598ZM49.4972 72.5387L47.4568 74.7379L49.4972 72.5387ZM21.9821 23.1074C22.1168 22.3677 22.8194 20.8412 24.2939 19.2106C25.7154 17.6385 27.6172 16.2396 29.8039 15.5202C31.9364 14.8185 34.4291 14.7279 37.2403 15.8674C40.1002 17.0265 43.4725 19.5365 47.1235 24.3604L51.9077 20.7394C47.812 15.3279 43.6348 11.9851 39.4942 10.3068C35.3049 8.60882 31.3462 8.69624 27.9286 9.82075C24.565 10.9275 21.8178 13.003 19.8435 15.1864C17.9221 17.3113 16.482 19.8213 16.0792 22.0321L21.9821 23.1074ZM21.9287 23.3983C21.9465 23.3019 21.9645 23.2039 21.9821 23.1074L16.0792 22.0321C16.063 22.1214 16.0461 22.2131 16.0281 22.3106L21.9287 23.3983ZM51.5377 70.3395C34.7268 54.742 27.1632 44.0505 23.875 36.7861C22.2452 33.1853 21.6757 30.4479 21.5369 28.376C21.398 26.3055 21.6758 24.7702 21.9287 23.3983L16.0281 22.3106C15.7611 23.7593 15.3584 25.9152 15.5503 28.7774C15.7421 31.6382 16.5144 35.0748 18.4089 39.2603C22.1696 47.5686 30.3853 58.8986 47.4568 74.7379L51.5377 70.3395ZM46.5006 72.5463V72.5551H52.5006V72.5463H46.5006ZM51.5663 70.3661C51.5644 70.3643 51.5623 70.3624 51.5603 70.3605L47.4796 74.7592C47.4815 74.7608 47.4833 74.7625 47.4852 74.7644L51.5663 70.3661ZM49.3301 69.5753L49.2532 69.5826L49.8215 75.5556L49.8984 75.5483L49.3301 69.5753ZM51.766 74.7103C68.8158 58.8846 76.9868 47.5571 80.7056 39.2452C82.5792 35.0574 83.3299 31.6194 83.5052 28.7591C83.6803 25.9003 83.2676 23.7451 83.0032 22.3106L77.1026 23.3983C77.3578 24.7832 77.6434 26.319 77.5164 28.3922C77.3895 30.4639 76.8375 33.199 75.2288 36.7948C71.9828 44.0501 64.4702 54.7318 47.6842 70.3127L51.766 74.7103ZM83.0032 22.3107C82.9852 22.2131 82.9683 22.1214 82.952 22.0321L77.0492 23.1075C77.0667 23.204 77.0848 23.302 77.1026 23.3983L83.0032 22.3107ZM82.952 22.0321C82.5493 19.8213 81.1092 17.3113 79.1878 15.1864C77.2135 13.003 74.4662 10.9275 71.1027 9.82075C67.685 8.69624 63.7263 8.60882 59.5371 10.3068C55.3965 11.9851 51.2192 15.3279 47.1235 20.7394L51.9077 24.3604C55.5587 19.5365 58.9311 17.0265 61.7909 15.8674C64.6022 14.7279 67.0948 14.8185 69.2274 15.5202C71.414 16.2396 73.3158 17.6385 74.7374 19.2106C76.2119 20.8412 76.9144 22.3677 77.0491 23.1074L82.952 22.0321ZM49.8984 75.5483C50.6226 75.4794 51.273 75.1679 51.766 74.7103L47.6842 70.3127C48.1169 69.911 48.6878 69.6364 49.3301 69.5753L49.8984 75.5483ZM47.4852 74.7644C48.1156 75.3492 48.9656 75.6371 49.8215 75.5556L49.2532 69.5826C50.1006 69.502 50.9422 69.787 51.5663 70.3661L47.4852 74.7644ZM51.5538 74.7571C51.2865 75.0051 50.7799 75.3816 50.0305 75.5122C49.2378 75.6504 48.5791 75.4448 48.1624 75.234C47.8029 75.0521 47.5672 74.8381 47.5179 74.794C47.4807 74.7607 47.4517 74.7329 47.4511 74.7324C47.4414 74.7231 47.4613 74.7422 47.4796 74.7592L51.5603 70.3605C51.6861 70.4772 51.5196 70.3234 51.5186 70.3224C51.4683 70.2774 51.2316 70.0626 50.871 69.8802C50.4534 69.6689 49.7937 69.463 48.9999 69.6014C48.2494 69.7323 47.7417 70.1093 47.4731 70.3585L51.5538 74.7571ZM46.5006 72.5551C46.5006 73.4411 46.8878 74.2408 47.4932 74.7866C48.0323 75.2726 48.6213 75.4564 49.0299 75.522C49.7636 75.6398 50.7516 75.5013 51.5538 74.7571L47.4731 70.3585C48.2712 69.618 49.2529 69.481 49.9811 69.5979C50.387 69.6631 50.9735 69.8459 51.5108 70.3302C52.1144 70.8744 52.5006 71.6719 52.5006 72.5551H46.5006ZM47.4568 74.7379C46.8744 74.1976 46.5006 73.4148 46.5006 72.5463H52.5006C52.5006 71.6721 52.1242 70.8837 51.5377 70.3395L47.4568 74.7379Z" fill="#9064EB" mask="url(#path-2-inside-1)"/>
</g>
<defs>
<filter id="filter0_d" x="13.5" y="7" width="72.0474" height="70.5692" filterUnits="userSpaceOnUse" color-interpolation-filters="sRGB">
<feFlood flood-opacity="0" result="BackgroundImageFix"/>
<feColorMatrix in="SourceAlpha" type="matrix" values="0 0 0 0 0 0 0 0 0 0 0 0 0 0 0 0 0 0 127 0"/>
<feOffset/>
<feGaussianBlur stdDeviation="2.5"/>
<feColorMatrix type="matrix" values="0 0 0 0 0 0 0 0 0 0 0 0 0 0 0 0 0 0 0.05 0"/>
<feBlend mode="normal" in2="BackgroundImageFix" result="effect1_dropShadow"/>
<feBlend mode="normal" in="SourceGraphic" in2="effect1_dropShadow" result="shape"/>
</filter>
<linearGradient id="paint0_linear" x1="37.3845" y1="83.7814" x2="26.5552" y2="11.6111" gradientUnits="userSpaceOnUse">
<stop stop-color="#EB647C"/>
<stop offset="1" stop-color="#B064EB"/>
</linearGradient>
<linearGradient id="paint1_linear" x1="49.5" y1="73" x2="49.5" y2="22.5" gradientUnits="userSpaceOnUse">
<stop stop-color="#6466EB"/>
<stop offset="1" stop-color="#8F64EB"/>
</linearGradient>
</defs>
</svg>
