<svg width="100" height="100" viewBox="0 0 100 100" fill="none" xmlns="http://www.w3.org/2000/svg">
<path opacity="0.2" d="M6.95929 75.1113C2.80644 67.7089 3.16778 57.0162 7.87357 49.5295C12.6506 42.0204 21.7287 37.6911 28.8497 30.8759C35.9273 24.0345 41.0324 14.6324 48.3704 10.6919C55.7363 6.7028 65.363 8.12669 71.2063 13.8039C76.9784 19.5035 78.8525 29.4527 82.504 38.6436C86.1554 47.8345 91.4849 56.338 91.1792 65.1042C90.8734 73.8705 84.8766 82.9965 77.2011 87.3216C69.4977 91.6953 60.1158 91.2682 51.6813 91.0201C43.2623 90.8466 35.862 90.8298 27.7989 88.7148C19.7513 86.6745 11.1121 82.5138 6.95929 75.1113Z" fill="url(#paint0_linear)"/>
<path d="M59.9989 23.0001C59.9989 21.3433 61.342 20.0001 62.9989 20.0001H92.1328C93.7897 20.0001 95.1328 21.3433 95.1328 23.0001V52.6663C95.1328 53.5647 94.0403 54.0074 93.4149 53.3625L87.3253 47.0825H61.9989C60.8943 47.0825 59.9989 46.1871 59.9989 45.0825V23.0001Z" fill="url(#paint1_linear)"/>
<path d="M69.5972 40.7422C69.6255 38.5333 67.8577 36.7196 65.6488 36.6913L15.6757 36.0513C13.4667 36.023 11.653 37.7908 11.6248 39.9997L11.0306 86.3888C11.0194 87.2641 12.0587 87.7303 12.705 87.1398L24.0385 76.7853L65.1285 77.3116C67.3375 77.3399 69.1511 75.5721 69.1794 73.3632L69.5972 40.7422Z" fill="url(#paint2_linear)"/>
<defs>
<linearGradient id="paint0_linear" x1="100.714" y1="64.0853" x2="18.7112" y2="38.0653" gradientUnits="userSpaceOnUse">
<stop stop-color="#F4E135"/>
<stop offset="1" stop-color="#EE9715"/>
</linearGradient>
<linearGradient id="paint1_linear" x1="91.5" y1="20.0001" x2="60" y2="50.0001" gradientUnits="userSpaceOnUse">
<stop stop-color="#9882FE"/>
<stop offset="1" stop-color="#3C1AD2"/>
</linearGradient>
<linearGradient id="paint2_linear" x1="65.5" y1="30.0001" x2="11" y2="89.0001" gradientUnits="userSpaceOnUse">
<stop stop-color="#30B4FF"/>
<stop offset="1" stop-color="#305DFF"/>
</linearGradient>
</defs>
</svg>
