<svg width="101" height="100" viewBox="0 0 101 100" fill="none" xmlns="http://www.w3.org/2000/svg">
<path opacity="0.2" d="M91.9346 88.1545C86.653 96.2869 76.2467 101.161 67.0161 99.7615C57.7329 98.2962 49.6194 90.6171 39.9777 86.277C30.3299 81.9967 19.0892 81.1088 12.108 75.1188C5.06822 69.1227 2.22934 58.0183 5.11916 48.9084C8.06156 39.8645 16.7792 32.9407 23.9939 24.4696C31.2086 15.9985 37.0317 6.05234 45.5673 2.06678C54.103 -1.91877 65.4685 0.0687567 72.9657 6.23401C80.5215 12.4055 84.2089 22.7547 87.6541 31.9918C91.1641 41.1754 94.3794 49.1811 95.8731 58.936C97.4317 68.6373 97.2162 80.022 91.9346 88.1545Z" fill="url(#paint0_linear)"/>
<path d="M16.3496 23.6504L90.0861 14.5967C91.1979 14.4602 91.7537 14.392 92.2049 14.5562C92.6018 14.7007 92.9428 14.9671 93.179 15.3172C93.4475 15.7153 93.5157 16.2711 93.6522 17.3829L100.097 69.868C100.233 70.9797 100.301 71.5356 100.137 71.9868C99.9927 72.3837 99.7263 72.7247 99.3761 72.9609C98.9781 73.2294 98.4222 73.2976 97.3104 73.4341L23.5739 82.4878L16.3496 23.6504Z" fill="#3788EE"/>
<path d="M12.7306 74.5381C13.3506 79.5878 18.2139 83.1459 23.5931 82.4855L32.2103 72.1463C31.5903 67.0966 26.727 63.5385 21.3478 64.199C15.9686 64.8594 12.1106 69.4884 12.7306 74.5381Z" fill="#3788EE"/>
<mask id="mask0" mask-type="alpha" maskUnits="userSpaceOnUse" x="12" y="14" width="89" height="69">
<path d="M16.3496 23.6504L91.2772 14.4505C92.3735 14.3159 93.3714 15.0955 93.506 16.1918L100.243 71.059C100.377 72.1554 99.5978 73.1533 98.5015 73.2879L23.5739 82.4878L16.3496 23.6504Z" fill="#3788EE"/>
<path d="M12.7306 74.5381C13.3506 79.5878 18.2139 83.1459 23.5931 82.4855L32.2103 72.1463C31.5903 67.0966 26.727 63.5385 21.3478 64.199C15.9686 64.8594 12.1106 69.4884 12.7306 74.5381Z" fill="#3788EE"/>
</mask>
<g mask="url(#mask0)">
<path opacity="0.1" d="M62.0955 219.572C40.5583 205.733 27.3425 177.887 30.6173 152.891C34.0627 127.749 53.842 105.442 64.8058 79.1827C75.613 52.9099 77.4617 22.512 92.8625 3.35083C108.277 -15.9691 137.257 -24.2111 161.254 -16.8811C185.081 -9.40571 203.597 13.7737 226.104 32.8147C248.61 51.8558 274.924 67.0627 285.732 89.9034C296.54 112.744 291.815 143.536 275.976 164.1C260.124 184.822 233.159 195.316 209.098 205.098C185.18 215.053 164.336 224.15 138.836 228.69C113.478 233.402 83.6327 233.411 62.0955 219.572Z" fill="#D0CDEA"/>
</g>
<path opacity="0.4" d="M25.6484 78.6974C20.2692 79.3579 15.4059 75.7997 14.7859 70.7501L14.4492 68.0083" stroke="#C9E0FC"/>
<path d="M15.3075 14.433C20.7241 13.7679 25.6212 17.3508 26.2455 22.4355L32.2118 72.1463C31.5961 67.1317 26.7666 63.5983 21.4248 64.2542C16.083 64.91 12.2517 69.5069 12.8674 74.5215L12.7321 74.5381L12.7288 74.5108L6.63046 24.844C6.00613 19.7592 9.89099 15.0981 15.3075 14.433Z" fill="#BED9FC"/>
<path d="M43.0267 66.0146C42.2088 59.3534 40.543 45.1962 40.423 41.8577C40.273 37.6845 41.01 30.1941 51.6822 26.0376C55.0117 24.9043 59.4156 27.8824 61.037 38.1364L64.1417 63.422M48.707 62.5228L47.7806 54.9779C52.2401 55.8793 55.7942 54.0457 57.2654 51.6917C57.5659 54.1387 58.2127 59.4065 58.4985 61.7345M43.1818 39.449C47.2263 37.814 51.1984 34.3249 52.1336 32.2437C53.2635 34.2783 57.2593 37.3065 58.0234 37.6266C60.6601 52.7755 53.9278 53.6021 52.4997 53.7775C50.8676 53.9779 45.0283 54.4878 43.1818 39.449Z" stroke="#99C5FF" stroke-width="0.5" stroke-linecap="round" stroke-linejoin="round" stroke-dasharray="1 1"/>
<path d="M42.3129 45.0763C42.3204 45.0967 42.3234 45.1167 42.3242 45.1359C42.3234 45.1167 42.3204 45.0967 42.3129 45.0763Z" fill="#FCFBF7"/>
<path d="M52.683 53.6968C52.5603 53.7241 52.4366 53.7465 52.3125 53.7659C52.4366 53.7465 52.5603 53.7241 52.683 53.6968Z" fill="#FCFBF7"/>
<path d="M40.875 42.2689C40.9522 42.2492 41.0321 42.2353 41.1145 42.2273C41.032 42.2353 40.9522 42.2492 40.875 42.2689Z" fill="#FCFBF7"/>
<path d="M54.5176 52.9419C54.3504 53.0435 54.1788 53.1375 54.0039 53.2236C54.1788 53.1375 54.3505 53.0435 54.5176 52.9419Z" fill="#FCFBF7"/>
<path d="M40.9023 44.446C40.8984 44.4126 40.899 44.3818 40.9013 44.3507C40.8989 44.3818 40.8983 44.4127 40.9023 44.446Z" fill="#FCFBF7"/>
<path d="M59.9311 42.5521C59.908 42.4925 59.8793 42.4357 59.8454 42.3826C59.8793 42.4357 59.908 42.4925 59.9311 42.5521Z" fill="#FCFBF7"/>
<path d="M59.0892 42.2981C59.0927 42.2987 59.0967 42.3003 59.1004 42.3019C59.0967 42.3003 59.0927 42.2987 59.0892 42.2981Z" fill="#FCFBF7"/>
<path d="M58.7383 42.1259C58.7846 42.069 58.8323 42.0141 58.8813 41.96C58.8323 42.0141 58.7846 42.069 58.7383 42.1259Z" fill="#FCFBF7"/>
<path d="M47.593 55.0534C47.7325 55.0845 47.8726 55.1125 48.013 55.1373C47.8726 55.1125 47.7325 55.0845 47.593 55.0534Z" fill="#FCFBF7"/>
<path d="M49.2422 55.2741C49.4961 55.286 49.7499 55.2867 50.003 55.2772C49.7499 55.2867 49.496 55.285 49.2422 55.2741Z" fill="#FCFBF7"/>
<path d="M48.4379 62.4412C47.8738 63.2844 41.396 66.1072 40.6067 68.464C52.4504 72.6715 58.5684 71.2285 67.04 65.9083C66.8261 63.7584 61.4297 62.7442 58.5108 61.7173C55.7415 63.2776 51.3264 63.9724 48.4379 62.4412Z" stroke="#99C5FF" stroke-width="0.5" stroke-linecap="round" stroke-linejoin="round" stroke-dasharray="1 1"/>
<path d="M55.2846 42.8298C55.7148 42.4259 55.6689 41.2325 55.0562 41.0091C54.6877 40.8747 54.4854 41.1069 54.4016 41.4384C54.3914 41.4561 54.3833 41.4776 54.3795 41.5017C54.3212 41.8856 54.3425 42.3388 54.5439 42.6815C54.7035 42.9535 55.0367 43.0624 55.2846 42.8298Z" fill="#C4DEFF"/>
<path opacity="0.4" d="M53.2273 39.777C53.243 39.775 53.2588 39.7731 53.2744 39.7712C53.301 39.7823 53.3316 39.7888 53.3671 39.7844C53.9951 39.7176 54.6233 39.6538 55.251 39.5839C55.4309 39.5629 55.6466 39.5374 55.7473 39.3639C55.8563 39.1749 55.7451 38.9823 55.5852 38.8715C54.7609 38.2963 53.5697 38.6879 53.0604 39.4823C52.979 39.6093 53.0586 39.8008 53.2273 39.777Z" fill="#C4DEFF"/>
<path d="M46.2713 42.0882C45.7307 42.4533 45.9749 43.6223 46.4899 43.9101C46.7868 44.0758 47.0838 43.8895 47.1728 43.5871C47.2853 43.2058 47.1963 42.7609 47.0469 42.4025C47.0374 42.3801 47.0244 42.3611 47.0102 42.3465C46.8487 42.045 46.5961 41.8687 46.2713 42.0882Z" fill="#C4DEFF"/>
<path opacity="0.4" d="M45.5015 40.7812C46.1274 40.6972 46.7524 40.6071 47.3778 40.52C47.4134 40.5157 47.4416 40.5019 47.4645 40.4847C47.4803 40.4828 47.4961 40.4809 47.5118 40.4789C47.6812 40.4612 47.712 40.2562 47.6023 40.1527C46.9161 39.505 45.6655 39.4132 45.0049 40.1708C44.8765 40.317 44.8151 40.5308 44.9667 40.6878C45.1062 40.8318 45.3218 40.8043 45.5015 40.7812Z" fill="#C4DEFF"/>
<path d="M50.2627 46.4787C50.506 46.5464 50.7315 46.4048 50.7419 46.1468C50.7481 45.9901 50.6715 45.8403 50.6214 45.6966C50.5566 45.5106 50.4997 45.3215 50.4529 45.1301C50.2536 44.3139 50.2176 43.4694 50.3352 42.6378C50.3435 42.5793 50.327 42.5321 50.2971 42.4978C50.245 42.3594 49.9859 42.3543 49.9376 42.543C49.7381 43.3209 49.6393 44.1173 49.6416 44.9198C49.6433 45.4195 49.6472 46.3069 50.2627 46.4787Z" fill="#C4DEFF"/>
<path d="M50.3737 48.8593C51.8161 49.2047 53.3306 48.5999 54.1319 47.3519C54.2587 47.1556 53.9707 46.9282 53.843 47.1266C53.1055 48.2745 51.7558 48.8148 50.4275 48.4965C50.1977 48.4416 50.1461 48.8051 50.3737 48.8593Z" fill="#C4DEFF"/>
<path opacity="0.2" d="M47.874 46.4813C47.7549 45.7409 47.0572 45.2361 46.3159 45.3558C45.5744 45.4746 45.07 46.172 45.1892 46.9134C45.3085 47.6548 46.0061 48.1587 46.7474 48.0389C47.4889 47.9201 47.9933 47.2227 47.874 46.4813Z" fill="#40B1FF"/>
<path opacity="0.2" d="M54.6073 45.5779C54.7351 46.3732 55.4834 46.9136 56.2787 46.7862C57.0739 46.6578 57.615 45.9097 57.4871 45.1155C57.3593 44.3202 56.6109 43.7798 55.8158 43.9072C55.0205 44.0357 54.4795 44.7837 54.6073 45.5779Z" fill="#40B1FF"/>
<path d="M26.6133 25.3718L90.3641 17.5442" stroke="#89B8F5"/>
<path opacity="0.4" d="M25.6211 78.7003L96.7988 69.9608" stroke="#C9E0FC"/>
<path d="M90.3242 17.6427L96.7566 69.9662" stroke="#89B8F5"/>
<ellipse cx="72.1712" cy="42.047" rx="0.873349" ry="0.873346" transform="rotate(-0.320683 72.1712 42.047)" fill="#40B1FF"/>
<ellipse cx="72.6048" cy="45.5618" rx="0.873349" ry="0.873346" transform="rotate(-0.32068 72.6048 45.5618)" fill="#40B1FF"/>
<ellipse cx="73.054" cy="49.208" rx="0.873349" ry="0.873347" transform="rotate(-0.32069 73.054 49.208)" fill="#40B1FF"/>
<ellipse cx="73.4993" cy="52.8543" rx="0.873348" ry="0.873345" transform="rotate(-0.320678 73.4993 52.8543)" fill="#40B1FF"/>
<rect x="74.6367" y="40.9568" width="12.6896" height="1.37705" rx="0.688527" transform="rotate(-7 74.6367 40.9568)" fill="#40B1FF"/>
<rect x="75.0703" y="44.4717" width="10.7784" height="1.37705" rx="0.688527" transform="rotate(-7 75.0703 44.4717)" fill="#40B1FF"/>
<rect x="75.5195" y="48.1179" width="7.54087" height="1.37706" rx="0.68853" transform="rotate(-7 75.5195 48.1179)" fill="#40B1FF"/>
<rect x="75.9648" y="51.7642" width="10.7543" height="1.37705" rx="0.688525" transform="rotate(-7 75.9648 51.7642)" fill="#40B1FF"/>
<rect opacity="0.7" x="70.3828" y="33.1298" width="16.3046" height="3.39372" rx="1.69686" transform="rotate(-7 70.3828 33.1298)" fill="#BED9FC"/>
<defs>
<linearGradient id="paint0_linear" x1="31.5" y1="-30" x2="77.2412" y2="42.8751" gradientUnits="userSpaceOnUse">
<stop stop-color="#F4E135"/>
<stop offset="1" stop-color="#EE9715"/>
</linearGradient>
</defs>
</svg>
